<svg width="100" height="100" viewBox="0 0 100 100" fill="none" xmlns="http://www.w3.org/2000/svg">
<path d="M43.6492 3.67238C47.5791 1.44254 52.4209 1.44254 56.3509 3.67237L87.6491 21.431C91.5791 23.6608 94 27.7817 94 32.2414V67.7586C94 72.2183 91.5791 76.3392 87.6492 78.569L56.3509 96.3276C52.4209 98.5575 47.5791 98.5575 43.6492 96.3276L12.3509 78.569C8.42093 76.3392 6 72.2183 6 67.7586V32.2414C6 27.7817 8.42093 23.6608 12.3509 21.431L43.6492 3.67238Z" fill="url(#paint0_linear_15631_68214)"/>
<rect x="16" y="18" width="1" height="1" fill="#110529"/>
<rect x="16" y="22" width="1" height="1" fill="#110529"/>
<rect x="16" y="26" width="1" height="1" fill="#110529"/>
<rect x="16" y="30" width="1" height="1" fill="#110529"/>
<rect x="16" y="34" width="1" height="1" fill="#110529"/>
<rect x="16" y="38" width="1" height="1" fill="#110529"/>
<rect x="16" y="42" width="1" height="1" fill="#110529"/>
<rect x="16" y="46" width="1" height="1" fill="#110529"/>
<rect x="16" y="50" width="1" height="1" fill="#110529"/>
<rect x="16" y="54" width="1" height="1" fill="#110529"/>
<rect x="16" y="58" width="1" height="1" fill="#110529"/>
<rect x="16" y="62" width="1" height="1" fill="#110529"/>
<rect x="16" y="66" width="1" height="1" fill="#110529"/>
<rect x="16" y="70" width="1" height="1" fill="#110529"/>
<rect x="16" y="74" width="1" height="1" fill="#110529"/>
<rect x="16" y="78" width="1" height="1" fill="#110529"/>
<path d="M16 82H84V83H16V82Z" fill="#110529"/>
<path d="M20.0002 79L20.0002 53.3056C48.7502 49 59.3752 39 80.0002 24L80.0002 50.9444C53.7502 52.125 41.2502 59.625 20.0002 79Z" fill="#DEDBFF"/>
<path d="M37.9997 66.7318C37.0433 67.284 35.8203 66.9563 35.2681 65.9998C34.7159 65.0434 35.0436 63.8204 36 63.2682C36.9565 62.716 38.1794 63.0437 38.7316 64.0002C39.2838 64.9566 38.9561 66.1796 37.9997 66.7318Z" fill="white" stroke="#110529"/>
<path d="M34.7325 56.4638C33.7759 57.0161 32.5527 56.6884 32.0005 55.7318C31.4482 54.7752 31.7759 53.552 32.7325 52.9997C33.6891 52.4474 34.9123 52.7752 35.4646 53.7318C36.0168 54.6884 35.6891 55.9115 34.7325 56.4638Z" fill="white" stroke="#110529"/>
<path d="M61.9997 49.7313C61.0433 50.2835 59.8203 49.9558 59.2681 48.9993C58.7159 48.0429 59.0436 46.8199 60 46.2678C60.9565 45.7156 62.1794 46.0433 62.7316 46.9997C63.2838 47.9561 62.9561 49.1791 61.9997 49.7313Z" fill="white" stroke="#110529"/>
<path d="M59.9998 50.7318C59.0434 51.284 57.8204 50.9563 57.2682 49.9998C56.716 49.0434 57.0437 47.8204 58.0002 47.2682C58.9566 46.716 60.1796 47.0437 60.7318 48.0002C61.284 48.9566 60.9563 50.1796 59.9998 50.7318Z" fill="white" stroke="#110529"/>
<path d="M42.9997 58.7318C42.0433 59.284 40.8203 58.9563 40.2681 57.9998C39.7159 57.0434 40.0436 55.8204 41 55.2682C41.9565 54.716 43.1794 55.0437 43.7316 56.0002C44.2838 56.9566 43.9561 58.1796 42.9997 58.7318Z" fill="white" stroke="#110529"/>
<path d="M40.9997 56.7318C40.0433 57.284 38.8203 56.9563 38.2681 55.9998C37.7159 55.0434 38.0436 53.8204 39 53.2682C39.9565 52.716 41.1794 53.0437 41.7316 54.0002C42.2838 54.9566 41.9561 56.1796 40.9997 56.7318Z" fill="white" stroke="#110529"/>
<path d="M62.9998 44.7318C62.0434 45.284 60.8204 44.9563 60.2682 43.9998C59.716 43.0434 60.0437 41.8204 61.0002 41.2682C61.9566 40.716 63.1796 41.0437 63.7318 42.0002C64.284 42.9566 63.9563 44.1796 62.9998 44.7318Z" fill="white" stroke="#110529"/>
<path d="M19.9999 66.25L79.9999 36.25" stroke="#845CFF" stroke-width="1.25"/>
<circle cx="68.0181" cy="50.2321" r="2" transform="rotate(60 68.0181 50.2321)" fill="white" stroke="#110529"/>
<circle cx="55.7321" cy="45.7321" r="2" transform="rotate(60 55.7321 45.7321)" fill="white" stroke="#110529"/>
<path d="M53.9997 50.7318C53.0433 51.284 51.8203 50.9563 51.2681 49.9998C50.7159 49.0434 51.0436 47.8204 52 47.2682C52.9565 46.716 54.1794 47.0437 54.7316 48.0002C55.2838 48.9566 54.9561 50.1796 53.9997 50.7318Z" fill="white" stroke="#110529"/>
<path d="M55.9997 62.7318C55.0433 63.284 53.8203 62.9563 53.2681 61.9998C52.7159 61.0434 53.0436 59.8204 54 59.2682C54.9565 58.716 56.1794 59.0437 56.7316 60.0002C57.2838 60.9566 56.9561 62.1796 55.9997 62.7318Z" fill="white" stroke="#110529"/>
<path d="M77.9997 32.7318C77.0433 33.284 75.8203 32.9563 75.2681 31.9998C74.7159 31.0434 75.0436 29.8204 76 29.2682C76.9565 28.716 78.1794 29.0437 78.7316 30.0002C79.2838 30.9566 78.9561 32.1796 77.9997 32.7318Z" fill="white" stroke="#110529"/>
<path d="M45.2684 48.2138C44.3118 48.7661 43.0886 48.4384 42.5363 47.4818C41.9841 46.5252 42.3118 45.302 43.2684 44.7497C44.225 44.1974 45.4482 44.5252 46.0005 45.4818C46.5527 46.4384 46.225 47.6615 45.2684 48.2138Z" fill="white" stroke="#110529"/>
<path d="M44.9997 55.7318C44.0433 56.284 42.8203 55.9563 42.2681 54.9998C41.7159 54.0434 42.0436 52.8204 43 52.2682C43.9565 51.716 45.1794 52.0437 45.7316 53.0002C46.2838 53.9566 45.9561 55.1796 44.9997 55.7318Z" fill="white" stroke="#110529"/>
<path d="M63.9998 33.7318C63.0434 34.284 61.8204 33.9563 61.2682 32.9998C60.716 32.0434 61.0437 30.8204 62.0002 30.2682C62.9566 29.716 64.1796 30.0437 64.7318 31.0002C65.284 31.9566 64.9563 33.1796 63.9998 33.7318Z" fill="white" stroke="#110529"/>
<path d="M72.9998 41.7318C72.0434 42.284 70.8204 41.9563 70.2682 40.9998C69.716 40.0434 70.0437 38.8204 71.0002 38.2682C71.9566 37.716 73.1796 38.0437 73.7318 39.0002C74.284 39.9566 73.9563 41.1796 72.9998 41.7318Z" fill="white" stroke="#110529"/>
<path d="M27.9998 65.7318C27.0434 66.284 25.8204 65.9563 25.2682 64.9998C24.716 64.0434 25.0437 62.8204 26.0002 62.2682C26.9566 61.716 28.1796 62.0437 28.7318 63.0002C29.284 63.9566 28.9563 65.1796 27.9998 65.7318Z" fill="white" stroke="#110529"/>
<defs>
<linearGradient id="paint0_linear_15631_68214" x1="50.0001" y1="0.0688678" x2="50.0001" y2="99.9311" gradientUnits="userSpaceOnUse">
<stop stop-color="#D1F5BF"/>
<stop offset="1" stop-color="#F4FEE0"/>
</linearGradient>
</defs>
</svg>
