<svg width="100" height="100" viewBox="0 0 100 100" fill="none" xmlns="http://www.w3.org/2000/svg">
<path d="M43.6492 3.67238C47.5791 1.44254 52.4209 1.44254 56.3509 3.67237L87.6491 21.431C91.5791 23.6608 94 27.7817 94 32.2414V67.7586C94 72.2183 91.5791 76.3392 87.6492 78.569L56.3509 96.3276C52.4209 98.5575 47.5791 98.5575 43.6492 96.3276L12.3509 78.569C8.42093 76.3392 6 72.2183 6 67.7586V32.2414C6 27.7817 8.42093 23.6608 12.3509 21.431L43.6492 3.67238Z" fill="url(#paint0_linear_15631_69498)"/>
<path d="M50 50L50 14" stroke="#110529"/>
<path d="M50 35L41 27" stroke="#110529"/>
<path d="M41 27L31 20" stroke="#110529"/>
<path d="M41 27L39 16" stroke="#110529"/>
<path d="M35 47V36" stroke="#110529"/>
<path d="M50 50L35 47" stroke="#110529"/>
<path d="M72 38L81 32" stroke="#110529"/>
<path d="M72 38L76 26" stroke="#110529"/>
<path d="M65 48L72 38" stroke="#110529"/>
<path d="M85 43L65 48" stroke="#110529"/>
<path d="M35 47L26 39" stroke="#110529"/>
<path d="M35 47L24 53" stroke="#110529"/>
<path d="M26 39L16 44" stroke="#110529"/>
<path d="M21 30L26 39" stroke="#110529"/>
<path d="M26 39L17 36" stroke="#110529"/>
<path d="M49.75 51.75L39.75 64.25" stroke="#110529"/>
<path d="M50 35L65 18" stroke="#110529"/>
<path d="M50 50L65 48" stroke="#110529"/>
<path d="M50 50L60 39" stroke="#110529"/>
<path d="M75 56L85 58" stroke="#110529"/>
<path d="M75 56L83 65" stroke="#110529"/>
<path d="M65 48L75 56" stroke="#110529"/>
<path d="M66 58L65 48" stroke="#110529"/>
<path d="M59 77L58 65" stroke="#110529"/>
<path d="M59 77L57 86" stroke="#110529"/>
<path d="M71 79L58 65" stroke="#110529"/>
<path d="M37 84L39 76" stroke="#110529"/>
<path d="M23 74L27 66" stroke="#110529"/>
<path d="M18 64L27 66" stroke="#110529"/>
<path d="M32 58L40 64" stroke="#110529"/>
<path d="M27 66L40 64" stroke="#110529"/>
<path d="M39 76L40 64" stroke="#110529"/>
<path d="M69 68L58 65" stroke="#110529"/>
<path d="M52 72L58 65" stroke="#110529"/>
<path d="M50 50L58 65" stroke="#110529"/>
<circle cx="6" cy="6" r="6" transform="matrix(1 0 0 -1 44 56)" fill="white" stroke="#110529"/>
<circle cx="4" cy="4" r="3.5" transform="matrix(1 0 0 -1 46 39)" fill="white" stroke="#110529"/>
<circle cx="2.5" cy="2.5" r="2.5" transform="matrix(1 0 0 -1 56.5 27.5)" fill="white" stroke="#110529"/>
<circle cx="2.5" cy="2.5" r="2.5" transform="matrix(1 0 0 -1 72.5 58.5)" fill="white" stroke="#110529"/>
<circle cx="2.5" cy="2.5" r="2.5" transform="matrix(1 0 0 -1 69.5 40.5)" fill="white" stroke="#110529"/>
<circle cx="2.5" cy="2.5" r="2.5" transform="matrix(1 0 0 -1 21.5 55.5)" fill="white" stroke="#110529"/>
<circle cx="2.5" cy="2.5" r="2.5" transform="matrix(1 0 0 -1 23.5 41.5)" fill="white" stroke="#110529"/>
<circle cx="2.5" cy="2.5" r="2.5" transform="matrix(1 0 0 -1 38.5 29.5)" fill="white" stroke="#110529"/>
<circle cx="2.5" cy="2.5" r="2.5" transform="matrix(1 0 0 -1 24.5 68.5)" fill="white" stroke="#110529"/>
<circle cx="2.5" cy="2.5" r="2.5" transform="matrix(1 0 0 -1 36.5 78.5)" fill="white" stroke="#110529"/>
<circle cx="2.5" cy="2.5" r="2.5" transform="matrix(1 0 0 -1 56.5 79.5)" fill="white" stroke="#110529"/>
<circle cx="4" cy="4" r="3.5" transform="matrix(1 0 0 -1 31 51)" fill="white" stroke="#110529"/>
<circle cx="4" cy="4" r="3.5" transform="matrix(1 0 0 -1 36 68)" fill="white" stroke="#110529"/>
<circle cx="4" cy="4" r="3.5" transform="matrix(1 0 0 -1 61 52)" fill="white" stroke="#110529"/>
<circle cx="4" cy="4" r="3.5" transform="matrix(1 0 0 -1 54 69)" fill="white" stroke="#110529"/>
<circle cx="2" cy="2" r="2" transform="matrix(1 0 0 -1 15 38)" fill="#845CFF"/>
<circle cx="2" cy="2" r="2" transform="matrix(1 0 0 -1 33 38)" fill="#845CFF"/>
<circle cx="2" cy="2" r="2" transform="matrix(1 0 0 -1 19 32)" fill="#845CFF"/>
<circle cx="2" cy="2" r="2" transform="matrix(1 0 0 -1 29 22)" fill="#845CFF"/>
<circle cx="2" cy="2" r="2" transform="matrix(1 0 0 -1 37 18)" fill="#845CFF"/>
<circle cx="2" cy="2" r="2" transform="matrix(1 0 0 -1 30 60)" fill="#845CFF"/>
<circle cx="2" cy="2" r="2" transform="matrix(1 0 0 -1 58 41)" fill="#845CFF"/>
<circle cx="2" cy="2" r="2" transform="matrix(1 0 0 -1 50 74)" fill="#845CFF"/>
<circle cx="2" cy="2" r="2" transform="matrix(1 0 0 -1 64 60)" fill="#845CFF"/>
<circle cx="2" cy="2" r="2" transform="matrix(1 0 0 -1 83 45)" fill="#845CFF"/>
<circle cx="2" cy="2" r="2" transform="matrix(1 0 0 -1 74 28)" fill="#845CFF"/>
<circle cx="2" cy="2" r="2" transform="matrix(1 0 0 -1 79 34)" fill="#845CFF"/>
<circle cx="2" cy="2" r="2" transform="matrix(1 0 0 -1 83 60)" fill="#845CFF"/>
<circle cx="2" cy="2" r="2" transform="matrix(1 0 0 -1 81 67)" fill="#845CFF"/>
<circle cx="2" cy="2" r="2" transform="matrix(1 0 0 -1 67 70)" fill="#845CFF"/>
<circle cx="2" cy="2" r="2" transform="matrix(1 0 0 -1 69 81)" fill="#845CFF"/>
<circle cx="2" cy="2" r="2" transform="matrix(1 0 0 -1 48 16)" fill="#845CFF"/>
<circle cx="2" cy="2" r="2" transform="matrix(1 0 0 -1 63 20)" fill="#845CFF"/>
<circle cx="2" cy="2" r="2" transform="matrix(1 0 0 -1 35 86)" fill="#845CFF"/>
<circle cx="2" cy="2" r="2" transform="matrix(1 0 0 -1 55 87)" fill="#845CFF"/>
<circle cx="2" cy="2" r="2" transform="matrix(1 0 0 -1 14 46)" fill="#845CFF"/>
<circle cx="2" cy="2" r="2" transform="matrix(1 0 0 -1 21 76)" fill="#845CFF"/>
<circle cx="2" cy="2" r="2" transform="matrix(1 0 0 -1 16 66)" fill="#845CFF"/>
<defs>
<linearGradient id="paint0_linear_15631_69498" x1="50.0001" y1="0.0688678" x2="50.0001" y2="99.9311" gradientUnits="userSpaceOnUse">
<stop stop-color="#D1F5BF"/>
<stop offset="1" stop-color="#F4FEE0"/>
</linearGradient>
</defs>
</svg>
