<svg width="100" height="100" viewBox="0 0 100 100" fill="none" xmlns="http://www.w3.org/2000/svg">
<path d="M43.6492 3.67238C47.5791 1.44254 52.4209 1.44254 56.3509 3.67237L87.6491 21.431C91.5791 23.6608 94 27.7817 94 32.2414V67.7586C94 72.2183 91.5791 76.3392 87.6492 78.569L56.3509 96.3276C52.4209 98.5575 47.5791 98.5575 43.6492 96.3276L12.3509 78.569C8.42093 76.3392 6 72.2183 6 67.7586V32.2414C6 27.7817 8.42093 23.6608 12.3509 21.431L43.6492 3.67238Z" fill="url(#paint0_linear_15631_67653)"/>
<rect x="16" y="18" width="1" height="1" fill="#110529"/>
<rect x="16" y="22" width="1" height="1" fill="#110529"/>
<rect x="16" y="26" width="1" height="1" fill="#110529"/>
<rect x="16" y="30" width="1" height="1" fill="#110529"/>
<rect x="16" y="34" width="1" height="1" fill="#110529"/>
<rect x="16" y="38" width="1" height="1" fill="#110529"/>
<rect x="16" y="42" width="1" height="1" fill="#110529"/>
<rect x="16" y="46" width="1" height="1" fill="#110529"/>
<rect x="16" y="50" width="1" height="1" fill="#110529"/>
<rect x="16" y="54" width="1" height="1" fill="#110529"/>
<rect x="16" y="58" width="1" height="1" fill="#110529"/>
<rect x="16" y="62" width="1" height="1" fill="#110529"/>
<rect x="16" y="66" width="1" height="1" fill="#110529"/>
<rect x="16" y="70" width="1" height="1" fill="#110529"/>
<rect x="16" y="74" width="1" height="1" fill="#110529"/>
<rect x="16" y="78" width="1" height="1" fill="#110529"/>
<path d="M16 82H84V83H16V82Z" fill="#110529"/>
<circle cx="49" cy="70" r="2" transform="rotate(180 49 70)" fill="#845CFF"/>
<circle cx="47" cy="74" r="2" transform="rotate(180 47 74)" fill="#845CFF"/>
<circle cx="33" cy="63" r="2" transform="rotate(180 33 63)" fill="#845CFF"/>
<circle cx="45" cy="63" r="2" transform="rotate(180 45 63)" fill="#845CFF"/>
<circle cx="40" cy="62" r="2" transform="rotate(180 40 62)" fill="#845CFF"/>
<circle cx="47" cy="67" r="2" transform="rotate(180 47 67)" fill="#845CFF"/>
<circle cx="38" cy="67" r="2" transform="rotate(180 38 67)" fill="#845CFF"/>
<circle cx="43" cy="67" r="2" transform="rotate(180 43 67)" fill="#845CFF"/>
<circle cx="36" cy="58" r="2" transform="rotate(180 36 58)" fill="#845CFF"/>
<circle cx="45" cy="71" r="2" transform="rotate(180 45 71)" fill="#845CFF"/>
<circle cx="42" cy="71" r="2" transform="rotate(180 42 71)" fill="#845CFF"/>
<circle cx="44" cy="58" r="2" transform="rotate(180 44 58)" fill="#845CFF"/>
<circle cx="41.75" cy="50.5" r="2" transform="rotate(180 41.75 50.5)" fill="#110529"/>
<circle cx="40.5" cy="55.5" r="2" transform="rotate(180 40.5 55.5)" fill="#110529"/>
<circle cx="35.5" cy="53" r="2" transform="rotate(180 35.5 53)" fill="#110529"/>
<circle cx="40.5" cy="43" r="2" transform="rotate(180 40.5 43)" fill="#110529"/>
<circle cx="36" cy="47" r="2" transform="rotate(180 36 47)" fill="#110529"/>
<circle cx="26.75" cy="50.5" r="2" transform="rotate(180 26.75 50.5)" fill="#110529"/>
<circle cx="33" cy="38" r="2" transform="rotate(180 33 38)" fill="#110529"/>
<circle cx="39.25" cy="32" r="2" transform="rotate(180 39.25 32)" fill="#110529"/>
<circle cx="23" cy="34" r="2" transform="rotate(180 23 34)" fill="#110529"/>
<circle cx="33" cy="21" r="2" transform="rotate(180 33 21)" fill="#110529"/>
<circle cx="52" cy="77" r="2" transform="rotate(180 52 77)" fill="#845CFF"/>
<circle cx="52" cy="73" r="2" transform="rotate(180 52 73)" fill="#845CFF"/>
<circle cx="2" cy="2" r="2" transform="matrix(1 0 0 -1 53 72)" fill="#845CFF"/>
<circle cx="2" cy="2" r="2" transform="matrix(1 0 0 -1 55 76)" fill="#845CFF"/>
<circle cx="2" cy="2" r="2" transform="matrix(1 0 0 -1 69 65)" fill="#845CFF"/>
<circle cx="2" cy="2" r="2" transform="matrix(1 0 0 -1 57 65)" fill="#845CFF"/>
<circle cx="2" cy="2" r="2" transform="matrix(1 0 0 -1 62 64)" fill="#845CFF"/>
<circle cx="2" cy="2" r="2" transform="matrix(1 0 0 -1 55 69)" fill="#845CFF"/>
<circle cx="2" cy="2" r="2" transform="matrix(1 0 0 -1 64 69)" fill="#845CFF"/>
<circle cx="2" cy="2" r="2" transform="matrix(1 0 0 -1 59 69)" fill="#845CFF"/>
<circle cx="2" cy="2" r="2" transform="matrix(1 0 0 -1 66 60)" fill="#845CFF"/>
<circle cx="2" cy="2" r="2" transform="matrix(1 0 0 -1 57 73)" fill="#845CFF"/>
<circle cx="2" cy="2" r="2" transform="matrix(1 0 0 -1 60 73)" fill="#845CFF"/>
<circle cx="2" cy="2" r="2" transform="matrix(1 0 0 -1 58 60)" fill="#845CFF"/>
<circle cx="2" cy="2" r="2" transform="matrix(1 0 0 -1 60.25 52.5)" fill="#110529"/>
<circle cx="2" cy="2" r="2" transform="matrix(1 0 0 -1 61.5 57.5)" fill="#110529"/>
<circle cx="2" cy="2" r="2" transform="matrix(1 0 0 -1 66.5 55)" fill="#110529"/>
<circle cx="2" cy="2" r="2" transform="matrix(1 0 0 -1 61.5 45)" fill="#110529"/>
<circle cx="2" cy="2" r="2" transform="matrix(1 0 0 -1 66 49)" fill="#110529"/>
<circle cx="2" cy="2" r="2" transform="matrix(1 0 0 -1 75.25 52.5)" fill="#110529"/>
<circle cx="2" cy="2" r="2" transform="matrix(1 0 0 -1 69 40)" fill="#110529"/>
<circle cx="2" cy="2" r="2" transform="matrix(1 0 0 -1 62.75 34)" fill="#110529"/>
<circle cx="2" cy="2" r="2" transform="matrix(1 0 0 -1 79 36)" fill="#110529"/>
<circle cx="2" cy="2" r="2" transform="matrix(1 0 0 -1 69 23)" fill="#110529"/>
<circle cx="2" cy="2" r="2" transform="matrix(1 0 0 -1 50 79)" fill="#845CFF"/>
<circle cx="2" cy="2" r="2" transform="matrix(1 0 0 -1 50 75)" fill="#845CFF"/>
<defs>
<linearGradient id="paint0_linear_15631_67653" x1="50.0001" y1="0.0688678" x2="50.0001" y2="99.9311" gradientUnits="userSpaceOnUse">
<stop stop-color="#D1F5BF"/>
<stop offset="1" stop-color="#F4FEE0"/>
</linearGradient>
</defs>
</svg>
