<svg width="100" height="100" viewBox="0 0 100 100" fill="none" xmlns="http://www.w3.org/2000/svg">
<path d="M43.6492 3.67238C47.5791 1.44254 52.4209 1.44254 56.3509 3.67237L87.6491 21.431C91.5791 23.6608 94 27.7817 94 32.2414V67.7586C94 72.2183 91.5791 76.3392 87.6492 78.569L56.3509 96.3276C52.4209 98.5575 47.5791 98.5575 43.6492 96.3276L12.3509 78.569C8.42093 76.3392 6 72.2183 6 67.7586V32.2414C6 27.7817 8.42093 23.6608 12.3509 21.431L43.6492 3.67238Z" fill="url(#paint0_linear_15659_41904)"/>
<path d="M80 64L77.9314 65.3298C71.6885 69.3431 63.3361 66.7842 60.4126 59.9627L55.0898 47.543C52.7417 42.064 46.7278 39.1393 40.9681 40.6752L37.5194 41.5948C36.5108 41.8638 35.4714 42 34.4275 42H21" stroke="#110529" stroke-dasharray="2 2"/>
<path d="M80 39L76.4723 41.2678C74.7723 42.3606 73.9223 42.9071 73.1135 43.2719C68.904 45.1705 63.9786 44.4852 60.4473 41.5097C59.7687 40.9379 59.1002 40.1802 57.7631 38.6648V38.6648C56.648 37.4011 56.0904 36.7692 55.5133 36.2629C52.529 33.6453 48.4433 32.6729 44.5997 33.6655C43.8564 33.8574 43.074 34.1704 41.5091 34.7964L39.2179 35.7128C38.1498 36.1401 37.6157 36.3537 37.068 36.5145C36.3367 36.729 35.5867 36.8735 34.8281 36.9458C34.2598 37 33.6846 37 32.5342 37H21" stroke="#110529"/>
<path d="M21 72L31.8557 56.802C34.3489 53.3115 38.7447 51.7319 42.8893 52.8372V52.8372C47.6115 54.0964 52.5683 51.8633 54.754 47.4921L60.6933 35.6135C62.6196 31.7608 63.5828 29.8344 65.0198 28.427C66.2905 27.1824 67.8221 26.2358 69.5036 25.6559C71.405 25 73.5588 25 77.8663 25H80" stroke="#845CFF" stroke-width="1.25"/>
<path d="M21 77L31.1416 67.5345C34.1642 64.7134 38.4263 63.647 42.4214 64.7124L45.4465 65.5191C48.9579 66.4554 52.7043 65.7501 55.6348 63.6011L62.8321 58.3231C64.8903 56.8138 67.3761 56 69.9284 56H80" stroke="#845CFF" stroke-dasharray="2 2"/>
<rect x="16" y="18" width="1" height="1" fill="#110529"/>
<rect x="16" y="22" width="1" height="1" fill="#110529"/>
<rect x="16" y="26" width="1" height="1" fill="#110529"/>
<rect x="16" y="30" width="1" height="1" fill="#110529"/>
<rect x="16" y="34" width="1" height="1" fill="#110529"/>
<rect x="16" y="38" width="1" height="1" fill="#110529"/>
<rect x="16" y="42" width="1" height="1" fill="#110529"/>
<rect x="16" y="46" width="1" height="1" fill="#110529"/>
<rect x="16" y="50" width="1" height="1" fill="#110529"/>
<rect x="16" y="54" width="1" height="1" fill="#110529"/>
<rect x="16" y="58" width="1" height="1" fill="#110529"/>
<rect x="16" y="62" width="1" height="1" fill="#110529"/>
<rect x="16" y="66" width="1" height="1" fill="#110529"/>
<rect x="16" y="70" width="1" height="1" fill="#110529"/>
<rect x="16" y="74" width="1" height="1" fill="#110529"/>
<rect x="16" y="78" width="1" height="1" fill="#110529"/>
<path d="M16 82H84V83H16V82Z" fill="#110529"/>
<defs>
<linearGradient id="paint0_linear_15659_41904" x1="50.0001" y1="0.0688678" x2="50.0001" y2="99.9311" gradientUnits="userSpaceOnUse">
<stop stop-color="#D1F5BF"/>
<stop offset="1" stop-color="#F4FEE0"/>
</linearGradient>
</defs>
</svg>
