<svg width="100" height="100" viewBox="0 0 100 100" fill="none" xmlns="http://www.w3.org/2000/svg">
<path d="M43.6492 3.67238C47.5791 1.44254 52.4209 1.44254 56.3509 3.67237L87.6491 21.431C91.5791 23.6608 94 27.7817 94 32.2414V67.7586C94 72.2183 91.5791 76.3392 87.6492 78.569L56.3509 96.3276C52.4209 98.5575 47.5791 98.5575 43.6492 96.3276L12.3509 78.569C8.42093 76.3392 6 72.2183 6 67.7586V32.2414C6 27.7817 8.42093 23.6608 12.3509 21.431L43.6492 3.67238Z" fill="url(#paint0_linear_15631_68547)"/>
<circle cx="46" cy="44" r="2" fill="white" stroke="#110529"/>
<circle cx="41" cy="53" r="3" fill="white" stroke="#110529"/>
<circle cx="34" cy="38" r="4" fill="white" stroke="#110529"/>
<circle cx="26" cy="52" r="2" fill="#C1ADFF" stroke="#110529"/>
<circle cx="62" cy="54" r="2" fill="#C1ADFF" stroke="#110529"/>
<circle cx="70.5" cy="62.5" r="2.5" fill="white" stroke="#110529"/>
<circle cx="60.5" cy="64.5" r="4.5" fill="white" stroke="#110529"/>
<circle cx="74" cy="50" r="4" fill="#C1ADFF" stroke="#110529"/>
<circle cx="35.5" cy="69.5" r="5.5" fill="#C1ADFF" stroke="#110529"/>
<circle cx="61" cy="33" r="9" fill="#C1ADFF" stroke="#110529"/>
<circle cx="69" cy="35" r="5" fill="white" stroke="#110529"/>
<rect x="16" y="18" width="1" height="1" fill="#110529"/>
<rect x="16" y="22" width="1" height="1" fill="#110529"/>
<rect x="16" y="26" width="1" height="1" fill="#110529"/>
<rect x="16" y="30" width="1" height="1" fill="#110529"/>
<rect x="16" y="34" width="1" height="1" fill="#110529"/>
<rect x="16" y="38" width="1" height="1" fill="#110529"/>
<rect x="16" y="42" width="1" height="1" fill="#110529"/>
<rect x="16" y="46" width="1" height="1" fill="#110529"/>
<rect x="16" y="50" width="1" height="1" fill="#110529"/>
<rect x="16" y="54" width="1" height="1" fill="#110529"/>
<rect x="16" y="58" width="1" height="1" fill="#110529"/>
<rect x="16" y="62" width="1" height="1" fill="#110529"/>
<rect x="16" y="66" width="1" height="1" fill="#110529"/>
<rect x="16" y="70" width="1" height="1" fill="#110529"/>
<rect x="16" y="74" width="1" height="1" fill="#110529"/>
<rect x="16" y="78" width="1" height="1" fill="#110529"/>
<path d="M16 82H84V83H16V82Z" fill="#110529"/>
<defs>
<linearGradient id="paint0_linear_15631_68547" x1="50.0001" y1="0.0688678" x2="50.0001" y2="99.9311" gradientUnits="userSpaceOnUse">
<stop stop-color="#D1F5BF"/>
<stop offset="1" stop-color="#F4FEE0"/>
</linearGradient>
</defs>
</svg>
