<svg width="100" height="100" viewBox="0 0 100 100" fill="none" xmlns="http://www.w3.org/2000/svg">
<path d="M43.6492 3.67238C47.5791 1.44254 52.4209 1.44254 56.3509 3.67237L87.6491 21.431C91.5791 23.6608 94 27.7817 94 32.2414V67.7586C94 72.2183 91.5791 76.3392 87.6492 78.569L56.3509 96.3276C52.4209 98.5575 47.5791 98.5575 43.6492 96.3276L12.3509 78.569C8.42093 76.3392 6 72.2183 6 67.7586V32.2414C6 27.7817 8.42093 23.6608 12.3509 21.431L43.6492 3.67238Z" fill="url(#paint0_linear_15631_69657)"/>
<path d="M81.375 78.5H20.625C20.556 78.5 20.5 78.444 20.5 78.375V56.7373C20.5 56.7067 20.5112 56.6772 20.5315 56.6543L34.4475 40.9706C34.4712 40.9439 34.5053 40.9286 34.541 40.9286H50.1145C50.4199 40.9286 50.7122 40.8044 50.9242 40.5845L65.2322 25.7491C65.2764 25.7033 65.3479 25.698 65.3983 25.7367L81.4511 38.066C81.4819 38.0897 81.5 38.1263 81.5 38.1652V78.375C81.5 78.444 81.444 78.5 81.375 78.5Z" fill="white" stroke="#110529"/>
<path d="M81.375 78.5H20.625C20.556 78.5 20.5 78.444 20.5 78.375V74.071C20.5 74.0455 20.5078 74.0206 20.5224 73.9996L20.1129 73.7148L20.5224 73.9996L34.484 53.9286C34.5073 53.895 34.5457 53.875 34.5866 53.875H50.131C50.4188 53.875 50.6957 53.7647 50.9046 53.5668L65.4428 39.7968C65.4637 39.777 65.4907 39.7651 65.5193 39.7629L81.3655 38.55C81.438 38.5445 81.5 38.6019 81.5 38.6747V78.375C81.5 78.444 81.444 78.5 81.375 78.5Z" fill="#DEDBFF" stroke="#110529"/>
<path d="M81.375 78.5H21.7134C21.6758 78.5 21.6541 78.4896 21.6396 78.4788C21.6225 78.4661 21.606 78.4453 21.596 78.4178C21.5859 78.3903 21.5852 78.3639 21.5901 78.3431C21.5943 78.3255 21.6042 78.3036 21.6329 78.2794L34.4075 67.5294C34.43 67.5104 34.4585 67.5 34.488 67.5H50.1594C50.4164 67.5 50.6656 67.412 50.8656 67.2507L65.3722 55.5518C65.3981 55.531 65.4311 55.5213 65.4641 55.5248L81.3884 57.2371C81.4519 57.2439 81.5 57.2975 81.5 57.3614V78.375C81.5 78.444 81.444 78.5 81.375 78.5Z" fill="#C1ADFF" stroke="#110529"/>
<rect x="16" y="18" width="1" height="1" fill="#110529"/>
<rect x="16" y="22" width="1" height="1" fill="#110529"/>
<rect x="16" y="26" width="1" height="1" fill="#110529"/>
<rect x="16" y="30" width="1" height="1" fill="#110529"/>
<rect x="16" y="34" width="1" height="1" fill="#110529"/>
<rect x="16" y="38" width="1" height="1" fill="#110529"/>
<rect x="16" y="42" width="1" height="1" fill="#110529"/>
<rect x="16" y="46" width="1" height="1" fill="#110529"/>
<rect x="16" y="50" width="1" height="1" fill="#110529"/>
<rect x="16" y="54" width="1" height="1" fill="#110529"/>
<rect x="16" y="58" width="1" height="1" fill="#110529"/>
<rect x="16" y="62" width="1" height="1" fill="#110529"/>
<rect x="16" y="66" width="1" height="1" fill="#110529"/>
<rect x="16" y="70" width="1" height="1" fill="#110529"/>
<rect x="16" y="74" width="1" height="1" fill="#110529"/>
<rect x="16" y="78" width="1" height="1" fill="#110529"/>
<path d="M16 82H84V83H16V82Z" fill="#110529"/>
<defs>
<linearGradient id="paint0_linear_15631_69657" x1="50.0001" y1="0.0688678" x2="50.0001" y2="99.9311" gradientUnits="userSpaceOnUse">
<stop stop-color="#D1F5BF"/>
<stop offset="1" stop-color="#F4FEE0"/>
</linearGradient>
</defs>
</svg>
