<svg width="100" height="100" viewBox="0 0 100 100" fill="none" xmlns="http://www.w3.org/2000/svg">
<path d="M43.6492 3.67238C47.5791 1.44254 52.4209 1.44254 56.3509 3.67237L87.6491 21.431C91.5791 23.6608 94 27.7817 94 32.2414V67.7586C94 72.2183 91.5791 76.3392 87.6492 78.569L56.3509 96.3276C52.4209 98.5575 47.5791 98.5575 43.6492 96.3276L12.3509 78.569C8.42093 76.3392 6 72.2183 6 67.7586V32.2414C6 27.7817 8.42093 23.6608 12.3509 21.431L43.6492 3.67238Z" fill="url(#paint0_linear_15631_68905)"/>
<path d="M35 62C56 62 46 38 65 38" stroke="#110529"/>
<circle cx="2" cy="2" r="2" transform="matrix(1 0 0 -1 63.25 24)" fill="#845CFF"/>
<circle cx="2" cy="2" r="2" transform="matrix(1 0 0 -1 60.75 36.5)" fill="#845CFF"/>
<circle cx="2" cy="2" r="2" transform="matrix(1 0 0 -1 64 39.875)" fill="#845CFF"/>
<circle cx="2" cy="2" r="2" transform="matrix(1 0 0 -1 60.75 47.75)" fill="#845CFF"/>
<circle cx="2" cy="2" r="2" transform="matrix(1 0 0 -1 67 62.75)" fill="#845CFF"/>
<circle cx="2" cy="2" r="2" transform="matrix(1 0 0 -1 62 72.75)" fill="#845CFF"/>
<circle cx="2" cy="2" r="2" transform="matrix(1 0 0 -1 67 32.75)" fill="#845CFF"/>
<circle cx="2" cy="2" r="2" transform="matrix(1 0 0 -1 63.25 59)" fill="#845CFF"/>
<circle cx="2" cy="2" r="2" transform="matrix(1 0 0 -1 62 61.5)" fill="#845CFF"/>
<circle cx="2" cy="2" r="2" transform="matrix(1 0 0 -1 60.75 70.25)" fill="#845CFF"/>
<circle cx="2" cy="2" r="2" transform="matrix(1 0 0 -1 60.75 59)" fill="#845CFF"/>
<circle cx="2" cy="2" r="2" transform="matrix(1 0 0 -1 58.25 50.25)" fill="#845CFF"/>
<circle cx="2" cy="2" r="2" transform="matrix(1 0 0 -1 62 51)" fill="#845CFF"/>
<circle cx="2" cy="2" r="2" transform="matrix(1 0 0 -1 67 58)" fill="#845CFF"/>
<circle cx="2" cy="2" r="2" transform="matrix(1 0 0 -1 64 66)" fill="#845CFF"/>
<circle cx="2" cy="2" r="2" transform="matrix(1 0 0 -1 62 43)" fill="#845CFF"/>
<circle cx="2" cy="2" r="2" transform="matrix(1 0 0 -1 72 57.75)" fill="#845CFF"/>
<circle cx="2" cy="2" r="2" transform="matrix(1 0 0 -1 68.25 49)" fill="#845CFF"/>
<circle cx="2" cy="2" r="2" transform="matrix(1 0 0 -1 65.75 43)" fill="#845CFF"/>
<circle cx="2" cy="2" r="2" transform="matrix(1 0 0 -1 68.25 70.25)" fill="#845CFF"/>
<circle cx="2" cy="2" r="2" transform="matrix(1 0 0 -1 64.5 54)" fill="#845CFF"/>
<circle cx="2" cy="2" r="2" transform="matrix(1 0 0 -1 67 65.25)" fill="#845CFF"/>
<circle cx="2" cy="2" r="2" transform="matrix(1 0 0 -1 56 65.25)" fill="#845CFF"/>
<circle cx="2" cy="2" r="2" transform="matrix(1 0 0 -1 64 80)" fill="#845CFF"/>
<circle cx="2" cy="2" r="2" transform="matrix(-1 0 0 1 40 36.75)" fill="#110529"/>
<circle cx="2" cy="2" r="2" transform="matrix(-1 0 0 1 37.5 36.75)" fill="#110529"/>
<circle cx="2" cy="2" r="2" transform="matrix(-1 0 0 1 38.75 34.25)" fill="#110529"/>
<circle cx="2" cy="2" r="2" transform="matrix(1 0 0 -1 31.25 34.25)" fill="#110529"/>
<circle cx="2" cy="2" r="2" transform="matrix(1 0 0 -1 32.5 45.5)" fill="#110529"/>
<circle cx="2" cy="2" r="2" transform="matrix(1 0 0 -1 35 55.5)" fill="#110529"/>
<circle cx="2" cy="2" r="2" transform="matrix(1 0 0 -1 38 51)" fill="#110529"/>
<circle cx="2" cy="2" r="2" transform="matrix(1 0 0 -1 35 61.125)" fill="#110529"/>
<circle cx="2" cy="2" r="2" transform="matrix(1 0 0 -1 33 64)" fill="#110529"/>
<circle cx="2" cy="2" r="2" transform="matrix(1 0 0 -1 30 43)" fill="#110529"/>
<circle cx="2" cy="2" r="2" transform="matrix(1 0 0 -1 33 28)" fill="#110529"/>
<circle cx="2" cy="2" r="2" transform="matrix(1 0 0 -1 33 77)" fill="#110529"/>
<circle cx="2" cy="2" r="2" transform="matrix(1 0 0 -1 28 65)" fill="#110529"/>
<circle cx="2" cy="2" r="2" transform="matrix(1 0 0 -1 30 68)" fill="#110529"/>
<circle cx="2" cy="2" r="2" transform="matrix(1 0 0 -1 36 67)" fill="#110529"/>
<circle cx="2" cy="2" r="2" transform="matrix(1 0 0 -1 39.75 53)" fill="#110529"/>
<circle cx="2" cy="2" r="2" transform="matrix(1 0 0 -1 25 49)" fill="#110529"/>
<circle cx="2" cy="2" r="2" transform="matrix(1 0 0 -1 27.5 55.5)" fill="#110529"/>
<circle cx="2" cy="2" r="2" transform="matrix(1 0 0 -1 32.5 50.5)" fill="#110529"/>
<circle cx="2" cy="2" r="2" transform="matrix(1 0 0 -1 31 54)" fill="#110529"/>
<circle cx="2" cy="2" r="2" transform="matrix(1 0 0 -1 37 32)" fill="#110529"/>
<circle cx="2" cy="2" r="2" transform="matrix(1 0 0 -1 38 48)" fill="#110529"/>
<circle cx="2" cy="2" r="2" transform="matrix(1 0 0 -1 30 58)" fill="#110529"/>
<defs>
<linearGradient id="paint0_linear_15631_68905" x1="50.0001" y1="0.0688678" x2="50.0001" y2="99.9311" gradientUnits="userSpaceOnUse">
<stop stop-color="#D1F5BF"/>
<stop offset="1" stop-color="#F4FEE0"/>
</linearGradient>
</defs>
</svg>
