<svg width="100" height="100" viewBox="0 0 100 100" fill="none" xmlns="http://www.w3.org/2000/svg">
<path d="M43.6492 3.67238C47.5791 1.44254 52.4209 1.44254 56.3509 3.67237L87.6491 21.431C91.5791 23.6608 94 27.7817 94 32.2414V67.7586C94 72.2183 91.5791 76.3392 87.6492 78.569L56.3509 96.3276C52.4209 98.5575 47.5791 98.5575 43.6492 96.3276L12.3509 78.569C8.42093 76.3392 6 72.2183 6 67.7586V32.2414C6 27.7817 8.42093 23.6608 12.3509 21.431L43.6492 3.67238Z" fill="url(#paint0_linear_15631_67226)"/>
<path d="M38.9997 84C39.0001 79.1429 39.1673 77.3162 49.3082 71.0476C54.0437 68.1204 56.0534 63.2453 54.4635 58.9048C53.5254 56.3438 51.7539 54.4838 49.9726 52.6135C48.3077 50.8654 46.6344 49.1084 45.625 46.7619C44.1282 43.2821 45.8368 40.8069 47.5205 38.3679C48.1869 37.4025 48.8494 36.4427 49.3077 35.4286C50.3632 33.0927 50.2887 30.1396 47.834 28.1429C46.7342 27.2482 45.747 26.4928 44.8669 25.8193C40.7753 22.6883 39 21.3298 39 16C39 21.3298 37.2247 22.6883 33.1331 25.8193C32.253 26.4928 31.2658 27.2482 30.166 28.1429C27.7113 30.1396 27.6368 33.0927 28.6923 35.4286C29.1506 36.4427 29.8131 37.4025 30.4795 38.3679C32.1632 40.8069 33.8718 43.2821 32.375 46.7619C31.3656 49.1084 29.6923 50.8654 28.0274 52.6135C26.2461 54.4837 24.4746 56.3438 23.5365 58.9048C21.9466 63.2453 23.9563 68.1204 28.6918 71.0476C38.8327 77.3162 38.9993 79.1429 38.9997 84Z" fill="white" stroke="#110529"/>
<path d="M39 30L39 70" stroke="#110529"/>
<rect x="37.5" y="50" width="3" height="16" rx="1.5" fill="#110529"/>
<circle cx="2.5" cy="2.5" r="2.5" transform="matrix(-1 0 0 1 41.5 57)" fill="white" stroke="#110529"/>
<path d="M70.6172 52.6667C73.082 49.0425 78.9908 44.136 74.15 40.0199C69.3092 35.9037 66 35.7143 66 30C66 35.7143 62.6904 35.9036 57.8503 40.0199C53.0103 44.1361 58.9146 49.0425 61.3819 52.6667C63.8492 56.2908 57.982 58.3144 61.9908 61.5159C65.9995 64.7175 65.9995 70 65.9995 70C65.9995 70 65.9995 64.7175 70.0109 61.5159C74.0222 58.3144 68.1524 56.2908 70.6172 52.6667Z" fill="#DEDBFF" stroke="#110529"/>
<rect x="64.5" y="41.25" width="3" height="10" rx="1.5" fill="#110529"/>
<path d="M66 37.5L66 57.5" stroke="#110529"/>
<circle cx="2.5" cy="2.5" r="2.5" transform="matrix(-1 0 0 1 68.5 43.75)" fill="white" stroke="#110529"/>
<defs>
<linearGradient id="paint0_linear_15631_67226" x1="50.0001" y1="0.0688678" x2="50.0001" y2="99.9311" gradientUnits="userSpaceOnUse">
<stop stop-color="#D1F5BF"/>
<stop offset="1" stop-color="#F4FEE0"/>
</linearGradient>
</defs>
</svg>
