<svg width="100" height="100" viewBox="0 0 100 100" fill="none" xmlns="http://www.w3.org/2000/svg">
<path d="M43.6492 3.67238C47.5791 1.44254 52.4209 1.44254 56.3509 3.67237L87.6491 21.431C91.5791 23.6608 94 27.7817 94 32.2414V67.7586C94 72.2183 91.5791 76.3392 87.6492 78.569L56.3509 96.3276C52.4209 98.5575 47.5791 98.5575 43.6492 96.3276L12.3509 78.569C8.42093 76.3392 6 72.2183 6 67.7586V32.2414C6 27.7817 8.42093 23.6608 12.3509 21.431L43.6492 3.67238Z" fill="url(#paint0_linear_15631_67056)"/>
<path d="M36 17.5L36 35" stroke="#110529"/>
<path d="M36 72.5L36 82.5" stroke="#110529"/>
<path d="M41 82.5L31 82.5" stroke="#110529"/>
<path d="M41 17.5L31 17.5" stroke="#110529"/>
<path d="M46 35.8C46 35.52 46 35.38 45.9455 35.273C45.8976 35.1789 45.8211 35.1024 45.727 35.0545C45.62 35 45.48 35 45.2 35H26.8C26.52 35 26.38 35 26.273 35.0545C26.1789 35.1024 26.1024 35.1789 26.0545 35.273C26 35.38 26 35.52 26 35.8V57H31.7143H40.2857H46V35.8Z" fill="white"/>
<path d="M26 57V57.5H25.5V57H26ZM46 57H46.5V57.5H46V57ZM26.273 35.0545L26.046 34.609L26.273 35.0545ZM26.0545 35.273L26.5 35.5L26.0545 35.273ZM45.727 35.0545L45.954 34.609L45.727 35.0545ZM45.9455 35.273L46.391 35.046L45.9455 35.273ZM45.2 35.5H26.8V34.5H45.2V35.5ZM31.7143 56.5H40.2857V57.5H31.7143V56.5ZM26.5 35.8V57H25.5V35.8H26.5ZM26 56.5H31.7143V57.5H26V56.5ZM40.2857 56.5H46V57.5H40.2857V56.5ZM45.5 57V35.8H46.5V57H45.5ZM26.8 35.5C26.6517 35.5 26.5706 35.5004 26.5123 35.5052C26.4599 35.5094 26.4712 35.5147 26.5 35.5L26.046 34.609C26.1817 34.5398 26.3166 34.5178 26.4309 34.5085C26.5393 34.4996 26.6682 34.5 26.8 34.5V35.5ZM25.5 35.8C25.5 35.6682 25.4996 35.5393 25.5085 35.4309C25.5178 35.3166 25.5398 35.1817 25.609 35.046L26.5 35.5C26.5147 35.4712 26.5094 35.4599 26.5052 35.5123C26.5004 35.5706 26.5 35.6517 26.5 35.8H25.5ZM26.5 35.5L25.609 35.046C25.7049 34.8578 25.8578 34.7049 26.046 34.609L26.5 35.5ZM45.2 34.5C45.3318 34.5 45.4607 34.4996 45.5691 34.5085C45.6834 34.5178 45.8183 34.5398 45.954 34.609L45.5 35.5C45.5288 35.5147 45.5401 35.5094 45.4877 35.5052C45.4294 35.5004 45.3483 35.5 45.2 35.5V34.5ZM45.5 35.8C45.5 35.6517 45.4996 35.5706 45.4948 35.5123C45.4906 35.4599 45.4853 35.4712 45.5 35.5L46.391 35.046C46.4602 35.1817 46.4822 35.3166 46.4915 35.4309C46.5004 35.5393 46.5 35.6682 46.5 35.8H45.5ZM45.954 34.609C46.1422 34.7049 46.2951 34.8578 46.391 35.046L45.5 35.5L45.954 34.609Z" fill="#110529"/>
<path d="M40.2857 57H31.7143H26V71.2C26 71.48 26 71.62 26.0545 71.727C26.1024 71.8211 26.1789 71.8976 26.273 71.9455C26.38 72 26.52 72 26.8 72H45.2C45.48 72 45.62 72 45.727 71.9455C45.8211 71.8976 45.8976 71.8211 45.9455 71.727C46 71.62 46 71.48 46 71.2V57H40.2857Z" fill="#DEDBFF"/>
<path d="M46 57V56.5H46.5V57H46ZM26 57H25.5V56.5H26V57ZM45.727 71.9455L45.954 72.391L45.727 71.9455ZM45.9455 71.727L46.391 71.954L45.9455 71.727ZM26.273 71.9455L26.046 72.391L26.273 71.9455ZM26.0545 71.727L25.609 71.954L26.0545 71.727ZM40.2857 57.5H31.7143V56.5H40.2857V57.5ZM26.8 71.5H45.2V72.5H26.8V71.5ZM45.5 71.2V57H46.5V71.2H45.5ZM46 57.5H40.2857V56.5H46V57.5ZM31.7143 57.5H26V56.5H31.7143V57.5ZM26.5 57V71.2H25.5V57H26.5ZM45.2 71.5C45.3483 71.5 45.4294 71.4996 45.4877 71.4948C45.5401 71.4906 45.5288 71.4853 45.5 71.5L45.954 72.391C45.8183 72.4602 45.6834 72.4822 45.5691 72.4915C45.4607 72.5004 45.3318 72.5 45.2 72.5V71.5ZM46.5 71.2C46.5 71.3318 46.5004 71.4607 46.4915 71.5691C46.4822 71.6834 46.4602 71.8183 46.391 71.954L45.5 71.5C45.4853 71.5288 45.4906 71.5401 45.4948 71.4877C45.4996 71.4294 45.5 71.3483 45.5 71.2H46.5ZM45.5 71.5L46.391 71.954C46.2951 72.1422 46.1422 72.2951 45.954 72.391L45.5 71.5ZM26.8 72.5C26.6682 72.5 26.5393 72.5004 26.4309 72.4915C26.3166 72.4822 26.1817 72.4602 26.046 72.391L26.5 71.5C26.4712 71.4853 26.4599 71.4906 26.5123 71.4948C26.5706 71.4996 26.6517 71.5 26.8 71.5V72.5ZM26.5 71.2C26.5 71.3483 26.5004 71.4294 26.5052 71.4877C26.5094 71.5401 26.5147 71.5288 26.5 71.5L25.609 71.954C25.5398 71.8183 25.5178 71.6834 25.5085 71.5691C25.4996 71.4607 25.5 71.3318 25.5 71.2H26.5ZM26.046 72.391C25.8578 72.2951 25.7049 72.1422 25.609 71.954L26.5 71.5L26.046 72.391Z" fill="#110529"/>
<path d="M74 30.5C74 30.2239 73.7761 30 73.5 30H54.5C54.2239 30 54 30.2239 54 30.5V45H59.7143H68.2857H74V30.5Z" fill="white" stroke="#110529"/>
<path d="M68.2857 45H59.7143H54V54.5C54 54.7761 54.2239 55 54.5 55H73.5C73.7761 55 74 54.7761 74 54.5V45H68.2857Z" fill="#DEDBFF" stroke="#110529"/>
<path d="M64 22.5L64 30" stroke="#110529"/>
<path d="M64 55L64 70" stroke="#110529"/>
<path d="M69 70L59 70" stroke="#110529"/>
<path d="M69 22.5L59 22.5" stroke="#110529"/>
<defs>
<linearGradient id="paint0_linear_15631_67056" x1="50.0001" y1="0.0688678" x2="50.0001" y2="99.9311" gradientUnits="userSpaceOnUse">
<stop stop-color="#D1F5BF"/>
<stop offset="1" stop-color="#F4FEE0"/>
</linearGradient>
</defs>
</svg>
