<svg width="100" height="100" viewBox="0 0 100 100" fill="none" xmlns="http://www.w3.org/2000/svg">
<path d="M43.6492 3.67238C47.5791 1.44254 52.4209 1.44254 56.3509 3.67237L87.6491 21.431C91.5791 23.6608 94 27.7817 94 32.2414V67.7586C94 72.2183 91.5791 76.3392 87.6492 78.569L56.3509 96.3276C52.4209 98.5575 47.5791 98.5575 43.6492 96.3276L12.3509 78.569C8.42093 76.3392 6 72.2183 6 67.7586V32.2414C6 27.7817 8.42093 23.6608 12.3509 21.431L43.6492 3.67238Z" fill="url(#paint0_linear_15631_69425)"/>
<path d="M46.75 76L46.75 32.5C46.75 32.2239 46.9738 32 47.25 32L65.0001 32C65.2763 32 65.5001 32.2239 65.5001 32.5L65.5001 44" stroke="#110529"/>
<path d="M56.5001 60L56.5001 44.5C56.5001 44.2239 56.7239 44 57.0001 44L65.7858 44" stroke="#845CFF"/>
<path d="M74.3749 52L74.3749 44.5C74.3749 44.2239 74.151 44 73.8749 44L65.3213 44" stroke="#110529"/>
<path d="M69.5 68L69.5 52.5C69.5 52.2239 69.7239 52 70 52L78.75 52C79.0261 52 79.25 52.2239 79.25 52.5L79.25 76" stroke="#110529"/>
<path d="M35.5 52L35.5 40.5C35.5 40.2239 35.2761 40 35 40L21.25 40C20.9739 40 20.75 40.2239 20.75 40.5L20.75 76" stroke="#845CFF"/>
<path d="M59.7495 77L59.7495 60.5C59.7495 60.2239 59.5257 60 59.2495 60L53.7495 60C53.4734 60 53.2495 60.2239 53.2495 60.5L53.2495 77" stroke="#845CFF"/>
<path d="M72.7498 76L72.7498 68.5C72.7498 68.2239 72.5259 68 72.2498 68L66.7498 68C66.4736 68 66.2498 68.2239 66.2498 68.5L66.2498 76" stroke="#110529"/>
<path d="M30.5003 68L30.5003 52.5C30.5003 52.2239 30.7241 52 31.0003 52L35.6074 52" stroke="#845CFF"/>
<path d="M27.2502 76L27.2502 68.5C27.2502 68.2239 27.4741 68 27.7502 68L33.2502 68C33.5264 68 33.7502 68.2239 33.7502 68.5L33.7502 76" stroke="#845CFF"/>
<path d="M56 32L56 21.5C56 21.2239 55.7761 21 55.5 21L42 21" stroke="#110529"/>
<path d="M28 39L28 21.5C28 21.2239 28.2239 21 28.5 21L42 21" stroke="#845CFF"/>
<path d="M40.2503 75L40.2503 52.5C40.2503 52.2239 40.0264 52 39.7503 52L35.6074 52" stroke="#110529"/>
<circle cx="74.5" cy="52" r="2" fill="#110529"/>
<circle cx="69.5" cy="68" r="2" fill="#110529"/>
<circle cx="20.75" cy="76" r="2" fill="#845CFF"/>
<circle cx="27.25" cy="76" r="2" fill="#845CFF"/>
<circle cx="33.75" cy="76" r="2" fill="#845CFF"/>
<circle cx="40.25" cy="76" r="2" fill="#110529"/>
<circle cx="46.75" cy="76" r="2" fill="#110529"/>
<circle cx="53.25" cy="76" r="2" fill="#845CFF"/>
<circle cx="59.75" cy="76" r="2" fill="#845CFF"/>
<circle cx="66.25" cy="76" r="2" fill="#110529"/>
<circle cx="72.75" cy="76" r="2" fill="#110529"/>
<circle cx="79.25" cy="76" r="2" fill="#110529"/>
<circle cx="56" cy="32" r="2" fill="#110529"/>
<circle cx="28" cy="40" r="2" fill="#845CFF"/>
<circle cx="30.5" cy="68" r="2" fill="#845CFF"/>
<circle cx="56.5" cy="60" r="2" fill="#845CFF"/>
<circle cx="65.5" cy="44" r="2" fill="#845CFF"/>
<circle cx="35.5" cy="52" r="2" fill="#845CFF"/>
<circle cx="42" cy="21" r="2" fill="#845CFF"/>
<defs>
<linearGradient id="paint0_linear_15631_69425" x1="50.0001" y1="0.0688678" x2="50.0001" y2="99.9311" gradientUnits="userSpaceOnUse">
<stop stop-color="#D1F5BF"/>
<stop offset="1" stop-color="#F4FEE0"/>
</linearGradient>
</defs>
</svg>
