<svg width="100" height="100" viewBox="0 0 100 100" fill="none" xmlns="http://www.w3.org/2000/svg">
    <path d="M43.6492 3.67238C47.5791 1.44254 52.4209 1.44254 56.3509 3.67237L87.6491 21.431C91.5791 23.6608 94 27.7817 94 32.2414V67.7586C94 72.2183 91.5791 76.3392 87.6492 78.569L56.3509 96.3276C52.4209 98.5575 47.5791 98.5575 43.6492 96.3276L12.3509 78.569C8.42093 76.3392 6 72.2183 6 67.7586V32.2414C6 27.7817 8.42093 23.6608 12.3509 21.431L43.6492 3.67238Z" fill="url(#paint0_linear_16064_7385)"/>
    <rect x="16" y="18" width="1" height="1" fill="#110529"/>
    <rect x="16" y="22" width="1" height="1" fill="#110529"/>
    <rect x="16" y="26" width="1" height="1" fill="#110529"/>
    <rect x="16" y="30" width="1" height="1" fill="#110529"/>
    <rect x="16" y="34" width="1" height="1" fill="#110529"/>
    <rect x="16" y="38" width="1" height="1" fill="#110529"/>
    <rect x="16" y="42" width="1" height="1" fill="#110529"/>
    <rect x="16" y="46" width="1" height="1" fill="#110529"/>
    <rect x="16" y="50" width="1" height="1" fill="#110529"/>
    <rect x="16" y="54" width="1" height="1" fill="#110529"/>
    <rect x="16" y="58" width="1" height="1" fill="#110529"/>
    <rect x="16" y="62" width="1" height="1" fill="#110529"/>
    <rect x="16" y="66" width="1" height="1" fill="#110529"/>
    <rect x="16" y="70" width="1" height="1" fill="#110529"/>
    <rect x="16" y="74" width="1" height="1" fill="#110529"/>
    <rect x="16" y="78" width="1" height="1" fill="#110529"/>
    <path d="M16 82H84V83H16V82Z" fill="#110529"/>
    <path d="M30 35.3594H24.5V31.5H39.5V35.3594H34H33.5V35.8594V62.5H30.5V35.8594V35.3594H30Z" fill="white" stroke="#110529"/>
    <path d="M27.333 77H24L30.0684 65H33.9232L40 77H36.667L32.0631 67.4609H31.9285L27.333 77ZM27.4424 72.2949H36.5324V74.041H27.4424V72.2949Z" fill="#110529"/>
    <path d="M45.333 59H42L48.0684 39H51.9232L58 59H54.667L50.0631 43.1016H49.9285L45.333 59ZM45.4424 51.1582H54.5324V54.0684H45.4424V51.1582Z" fill="#110529"/>
    <path d="M54.5256 66.1863C54.379 65.7757 54.1767 65.4081 53.9186 65.0837C53.6665 64.7541 53.3616 64.4728 53.0038 64.2395C52.652 64.0063 52.2474 63.8314 51.79 63.7148C51.3326 63.5932 50.8342 63.5323 50.2947 63.5323C49.3271 63.5323 48.4651 63.7427 47.7086 64.1635C46.9522 64.5843 46.357 65.2028 45.923 66.019C45.495 66.8302 45.2809 67.8188 45.2809 68.9848C45.2809 70.161 45.495 71.1572 45.923 71.9734C46.3511 72.7896 46.9463 73.4106 47.7086 73.8365C48.471 74.2573 49.3564 74.4677 50.365 74.4677C51.2798 74.4677 52.0715 74.3156 52.74 74.0114C53.4143 73.7072 53.9333 73.2763 54.2969 72.7186C54.6604 72.1559 54.8422 71.4968 54.8422 70.7414L55.5811 70.8403H50.6905V68.635H58V70.5057C58 71.839 57.6716 72.9924 57.0148 73.9658C56.3581 74.9392 55.455 75.6895 54.3057 76.2167C53.1563 76.7389 51.8369 77 50.3474 77C48.6879 77 47.2307 76.6781 45.9758 76.0342C44.7268 75.3853 43.7504 74.4651 43.0467 73.2738C42.3489 72.0773 42 70.6578 42 69.0152C42 67.7579 42.2052 66.635 42.6157 65.6464C43.0321 64.6578 43.6126 63.8188 44.3573 63.1293C45.1021 62.4347 45.9758 61.9075 46.9786 61.5475C47.9813 61.1825 49.072 61 50.2507 61C51.2476 61 52.177 61.1267 53.039 61.3802C53.901 61.6286 54.6663 61.9835 55.3348 62.4449C56.0092 62.9062 56.5633 63.4537 56.9973 64.0875C57.4312 64.7212 57.7156 65.4208 57.8505 66.1863H54.5256Z" fill="#845CFF"/>
    <path d="M74.0256 38.6141C73.879 37.5361 73.6767 36.5713 73.4186 35.7196C73.1665 34.8546 72.8616 34.116 72.5038 33.5038C72.152 32.8916 71.7474 32.4325 71.29 32.1264C70.8326 31.807 70.3342 31.6473 69.7947 31.6473C68.8271 31.6473 67.9651 32.1996 67.2086 33.3042C66.4522 34.4087 65.857 36.0323 65.423 38.1749C64.995 40.3042 64.7809 42.8992 64.7809 45.9601C64.7809 49.0475 64.995 51.6625 65.423 53.8051C65.8511 55.9477 66.4463 57.5779 67.2086 58.6958C67.971 59.8004 68.8564 60.3527 69.865 60.3527C70.7798 60.3527 71.5715 59.9534 72.24 59.1549C72.9143 58.3565 73.4333 57.2253 73.7969 55.7614C74.1604 54.2842 74.3422 52.2234 74.3422 50.2405L75.0811 50.5H70.1905V45.0418H77.5V49.9525C77.5 53.4525 77.1716 56.48 76.5148 59.0352C75.8581 61.5903 74.955 63.5599 73.8057 64.9439C72.6563 66.3146 71.3369 67 69.8474 67C68.1879 67 66.7307 66.1549 65.4758 64.4648C64.2268 62.7614 63.2504 60.346 62.5467 57.2186C61.8489 54.078 61.5 50.3517 61.5 46.0399C61.5 42.7395 61.7052 39.7918 62.1157 37.1968C62.5321 34.6017 63.1126 32.3992 63.8573 30.5894C64.6021 28.7662 65.4758 27.3821 66.4786 26.4373C67.4813 25.4791 68.572 25 69.7507 25C70.7476 25 71.677 25.3327 72.539 25.9981C73.401 26.6502 74.1663 27.5817 74.8348 28.7928C75.5092 30.0038 76.0633 31.4411 76.4973 33.1046C76.9312 34.7681 77.2156 36.6046 77.3505 38.6141H74.0256Z" fill="#845CFF"/>
    <path d="M71 70V76.5H68V70V69.5H71V70Z" fill="white" stroke="#110529"/>
    <defs>
        <linearGradient id="paint0_linear_16064_7385" x1="50.0001" y1="0.0688678" x2="50.0001" y2="99.9311" gradientUnits="userSpaceOnUse">
            <stop stop-color="#D1F5BF"/>
            <stop offset="1" stop-color="#F4FEE0"/>
        </linearGradient>
    </defs>
</svg>
