<svg width="100" height="100" viewBox="0 0 100 100" fill="none" xmlns="http://www.w3.org/2000/svg">
<path d="M43.6492 3.67238C47.5791 1.44254 52.4209 1.44254 56.3509 3.67237L87.6491 21.431C91.5791 23.6608 94 27.7817 94 32.2414V67.7586C94 72.2183 91.5791 76.3392 87.6492 78.569L56.3509 96.3276C52.4209 98.5575 47.5791 98.5575 43.6492 96.3276L12.3509 78.569C8.42093 76.3392 6 72.2183 6 67.7586V32.2414C6 27.7817 8.42093 23.6608 12.3509 21.431L43.6492 3.67238Z" fill="url(#paint0_linear_15631_69002)"/>
<circle cx="2" cy="2" r="2" transform="matrix(-1 0 0 1 68.75 66.25)" fill="#845CFF"/>
<circle cx="2" cy="2" r="2" transform="matrix(-1 0 0 1 68.75 28.75)" fill="#845CFF"/>
<circle cx="2" cy="2" r="2" transform="matrix(-1 0 0 1 68.75 33.75)" fill="#845CFF"/>
<circle cx="2" cy="2" r="2" transform="matrix(-1 0 0 1 68.75 36.25)" fill="#845CFF"/>
<circle cx="2" cy="2" r="2" transform="matrix(-1 0 0 1 70 43.75)" fill="#845CFF"/>
<circle cx="2" cy="2" r="2" transform="matrix(-1 0 0 1 68.75 48.75)" fill="#845CFF"/>
<circle cx="2" cy="2" r="2" transform="matrix(-1 0 0 1 65 47.5)" fill="#845CFF"/>
<circle cx="2" cy="2" r="2" transform="matrix(-1 0 0 1 65 43.75)" fill="#845CFF"/>
<circle cx="2" cy="2" r="2" transform="matrix(-1 0 0 1 67.5 40)" fill="#845CFF"/>
<circle cx="2" cy="2" r="2" transform="matrix(-1 0 0 1 61.25 42.5)" fill="#845CFF"/>
<circle cx="2" cy="2" r="2" transform="matrix(-1 0 0 1 65 38.75)" fill="#845CFF"/>
<circle cx="2" cy="2" r="2" transform="matrix(-1 0 0 1 75 43.75)" fill="#845CFF"/>
<circle cx="2" cy="2" r="2" transform="matrix(-1 0 0 1 72.5 47.5)" fill="#845CFF"/>
<circle cx="2" cy="2" r="2" transform="matrix(-1 0 0 1 71.25 51.25)" fill="#845CFF"/>
<circle cx="2" cy="2" r="2" transform="matrix(-1 0 0 1 66.25 57.5)" fill="#845CFF"/>
<circle cx="2" cy="2" r="2" transform="matrix(-1 0 0 1 72.5 58.75)" fill="#845CFF"/>
<circle cx="2" cy="2" r="2" transform="matrix(-1 0 0 1 70 55)" fill="#845CFF"/>
<circle cx="2" cy="2" r="2" transform="matrix(-1 0 0 1 72.5 38.75)" fill="#845CFF"/>
<circle cx="2" cy="2" r="2" transform="matrix(-1 0 0 1 76.25 41.25)" fill="#845CFF"/>
<circle cx="2" cy="2" r="2" transform="matrix(-1 0 0 1 67.5 52.5)" fill="#845CFF"/>
<circle cx="2" cy="2" r="2" transform="matrix(-1 0 0 1 68.75 61.25)" fill="#845CFF"/>
<circle cx="2" cy="2" r="2" transform="matrix(-1 0 0 1 41 16)" fill="#110529"/>
<circle cx="2" cy="2" r="2" transform="matrix(-1 0 0 1 36.25 55)" fill="#110529"/>
<circle cx="2" cy="2" r="2" transform="matrix(-1 0 0 1 34 70)" fill="#110529"/>
<circle cx="2" cy="2" r="2" transform="matrix(-1 0 0 1 29 64)" fill="#110529"/>
<circle cx="2" cy="2" r="2" transform="matrix(-1 0 0 1 36.25 46.25)" fill="#110529"/>
<circle cx="2" cy="2" r="2" transform="matrix(-1 0 0 1 41 39)" fill="#110529"/>
<circle cx="2" cy="2" r="2" transform="matrix(-1 0 0 1 43 65)" fill="#110529"/>
<circle cx="2" cy="2" r="2" transform="matrix(-1 0 0 1 42 62)" fill="#110529"/>
<circle cx="2" cy="2" r="2" transform="matrix(-1 0 0 1 40 57)" fill="#110529"/>
<circle cx="2" cy="2" r="2" transform="matrix(-1 0 0 1 38.75 50)" fill="#110529"/>
<circle cx="2" cy="2" r="2" transform="matrix(-1 0 0 1 34 62)" fill="#110529"/>
<circle cx="2" cy="2" r="2" transform="matrix(-1 0 0 1 42.5 52.5)" fill="#110529"/>
<circle cx="2" cy="2" r="2" transform="matrix(-1 0 0 1 49 65)" fill="#110529"/>
<circle cx="2" cy="2" r="2" transform="matrix(-1 0 0 1 48 50)" fill="#110529"/>
<circle cx="2" cy="2" r="2" transform="matrix(-1 0 0 1 52 64)" fill="#110529"/>
<circle cx="2" cy="2" r="2" transform="matrix(-1 0 0 1 43 72)" fill="#110529"/>
<circle cx="2" cy="2" r="2" transform="matrix(-1 0 0 1 35 27.5)" fill="#110529"/>
<circle cx="2" cy="2" r="2" transform="matrix(-1 0 0 1 43 25)" fill="#110529"/>
<circle cx="2" cy="2" r="2" transform="matrix(-1 0 0 1 47 31)" fill="#110529"/>
<circle cx="2" cy="2" r="2" transform="matrix(-1 0 0 1 47 69)" fill="#110529"/>
<circle cx="2" cy="2" r="2" transform="matrix(-1 0 0 1 35 65)" fill="#110529"/>
<circle cx="2" cy="2" r="2" transform="matrix(-1 0 0 1 32 65)" fill="#110529"/>
<circle cx="2" cy="2" r="2" transform="matrix(-1 0 0 1 45 62.5)" fill="#110529"/>
<circle cx="2" cy="2" r="2" transform="matrix(-1 0 0 1 39 71)" fill="#110529"/>
<circle cx="2" cy="2" r="2" transform="matrix(-1 0 0 1 34 57)" fill="#110529"/>
<circle cx="2" cy="2" r="2" transform="matrix(-1 0 0 1 42 31)" fill="#110529"/>
<circle cx="2" cy="2" r="2" transform="matrix(-1 0 0 1 34 33)" fill="#110529"/>
<circle cx="2" cy="2" r="2" transform="matrix(-1 0 0 1 37.5 32.5)" fill="#110529"/>
<circle cx="2" cy="2" r="2" transform="matrix(-1 0 0 1 40 29)" fill="#110529"/>
<circle cx="2" cy="2" r="2" transform="matrix(-1 0 0 1 36.25 35)" fill="#110529"/>
<circle cx="2" cy="2" r="2" transform="matrix(-1 0 0 1 38.5 43.5)" fill="#110529"/>
<circle cx="2" cy="2" r="2" transform="matrix(-1 0 0 1 46 56)" fill="#110529"/>
<circle cx="2" cy="2" r="2" transform="matrix(-1 0 0 1 30 53.75)" fill="#110529"/>
<circle cx="2" cy="2" r="2" transform="matrix(-1 0 0 1 51.25 54)" fill="#110529"/>
<circle cx="2" cy="2" r="2" transform="matrix(-1 0 0 1 34 51)" fill="#110529"/>
<circle cx="2" cy="2" r="2" transform="matrix(-1 0 0 1 46 49)" fill="#110529"/>
<circle cx="2" cy="2" r="2" transform="matrix(-1 0 0 1 48.75 60)" fill="#110529"/>
<circle cx="2" cy="2" r="2" transform="matrix(-1 0 0 1 54 59)" fill="#110529"/>
<circle cx="2" cy="2" r="2" transform="matrix(-1 0 0 1 44 58)" fill="#110529"/>
<circle cx="2" cy="2" r="2" transform="matrix(-1 0 0 1 37 61)" fill="#110529"/>
<circle cx="2" cy="2" r="2" transform="matrix(-1 0 0 1 28 59)" fill="#110529"/>
<circle cx="2" cy="2" r="2" transform="matrix(-1 0 0 1 43.75 42.5)" fill="#110529"/>
<circle cx="2" cy="2" r="2" transform="matrix(-1 0 0 1 41 81)" fill="#110529"/>
<circle cx="2" cy="2" r="2" transform="matrix(-1 0 0 1 41 75)" fill="#110529"/>
<circle cx="2" cy="2" r="2" transform="matrix(-1 0 0 1 40 66)" fill="#110529"/>
<circle cx="2" cy="2" r="2" transform="matrix(-1 0 0 1 40 46.25)" fill="#110529"/>
<circle cx="2" cy="2" r="2" transform="matrix(-1 0 0 1 41 22)" fill="#110529"/>
<circle cx="2" cy="2" r="2" transform="matrix(-1 0 0 1 42 35)" fill="#110529"/>
<circle cx="2" cy="2" r="2" transform="matrix(-1 0 0 1 45 35)" fill="#110529"/>
<circle cx="2" cy="2" r="2" transform="matrix(-1 0 0 1 46 28)" fill="#110529"/>
<circle cx="2" cy="2" r="2" transform="matrix(-1 0 0 1 38.75 25)" fill="#110529"/>
<circle cx="2" cy="2" r="2" transform="matrix(-1 0 0 1 39 39)" fill="#110529"/>
<defs>
<linearGradient id="paint0_linear_15631_69002" x1="50.0001" y1="0.0688678" x2="50.0001" y2="99.9311" gradientUnits="userSpaceOnUse">
<stop stop-color="#D1F5BF"/>
<stop offset="1" stop-color="#F4FEE0"/>
</linearGradient>
</defs>
</svg>
