<svg width="100" height="100" viewBox="0 0 100 100" fill="none" xmlns="http://www.w3.org/2000/svg">
<path d="M43.6492 3.67238C47.5791 1.44254 52.4209 1.44254 56.3509 3.67237L87.6491 21.431C91.5791 23.6608 94 27.7817 94 32.2414V67.7586C94 72.2183 91.5791 76.3392 87.6492 78.569L56.3509 96.3276C52.4209 98.5575 47.5791 98.5575 43.6492 96.3276L12.3509 78.569C8.42093 76.3392 6 72.2183 6 67.7586V32.2414C6 27.7817 8.42093 23.6608 12.3509 21.431L43.6492 3.67238Z" fill="url(#paint0_linear_15631_68017)"/>
<rect x="16" y="18" width="1" height="1" fill="#110529"/>
<rect x="16" y="22" width="1" height="1" fill="#110529"/>
<rect x="16" y="26" width="1" height="1" fill="#110529"/>
<rect x="16" y="30" width="1" height="1" fill="#110529"/>
<rect x="16" y="34" width="1" height="1" fill="#110529"/>
<rect x="16" y="38" width="1" height="1" fill="#110529"/>
<rect x="16" y="42" width="1" height="1" fill="#110529"/>
<rect x="16" y="46" width="1" height="1" fill="#110529"/>
<rect x="16" y="50" width="1" height="1" fill="#110529"/>
<rect x="16" y="54" width="1" height="1" fill="#110529"/>
<rect x="16" y="58" width="1" height="1" fill="#110529"/>
<rect x="16" y="62" width="1" height="1" fill="#110529"/>
<rect x="16" y="66" width="1" height="1" fill="#110529"/>
<rect x="16" y="70" width="1" height="1" fill="#110529"/>
<rect x="16" y="74" width="1" height="1" fill="#110529"/>
<rect x="16" y="78" width="1" height="1" fill="#110529"/>
<path d="M16 82H84V83H16V82Z" fill="#110529"/>
<circle cx="50" cy="50.5" r="2" transform="rotate(-90 50 50.5)" fill="#110529"/>
<circle cx="60" cy="62" r="2" transform="rotate(-90 60 62)" fill="#110529"/>
<circle cx="58" cy="50.5" r="2" transform="rotate(-90 58 50.5)" fill="#110529"/>
<circle cx="63" cy="66" r="2" transform="rotate(-90 63 66)" fill="#110529"/>
<circle cx="67" cy="66" r="2" transform="rotate(-90 67 66)" fill="#110529"/>
<circle cx="56" cy="62" r="2" transform="rotate(-90 56 62)" fill="#110529"/>
<circle cx="28" cy="27" r="2" transform="rotate(-90 28 27)" fill="#110529"/>
<circle cx="29" cy="37" r="2" transform="rotate(-90 29 37)" fill="#110529"/>
<circle cx="39" cy="50.5" r="2" transform="rotate(-90 39 50.5)" fill="#110529"/>
<circle cx="73" cy="66" r="2" transform="rotate(-90 73 66)" fill="#110529"/>
<circle cx="67" cy="70" r="2" transform="rotate(-90 67 70)" fill="#110529"/>
<circle cx="56" cy="66" r="2" transform="rotate(-90 56 66)" fill="#110529"/>
<circle cx="63" cy="70" r="2" transform="rotate(-90 63 70)" fill="#110529"/>
<circle cx="43" cy="50.5" r="2" transform="rotate(-90 43 50.5)" fill="#110529"/>
<circle cx="35" cy="43.5" r="2" transform="rotate(-90 35 43.5)" fill="#110529"/>
<circle cx="32" cy="40" r="2" transform="rotate(-90 32 40)" fill="#110529"/>
<circle cx="39" cy="43.5" r="2" transform="rotate(-90 39 43.5)" fill="#110529"/>
<circle cx="59" cy="66" r="2" transform="rotate(-90 59 66)" fill="#110529"/>
<circle cx="52" cy="62" r="2" transform="rotate(-90 52 62)" fill="#110529"/>
<circle cx="46" cy="43.5" r="2" transform="rotate(-90 46 43.5)" fill="#110529"/>
<circle cx="37" cy="47" r="2" transform="rotate(-90 37 47)" fill="#110529"/>
<circle cx="55" cy="58" r="2" transform="rotate(-90 55 58)" fill="#110529"/>
<circle cx="51" cy="58" r="2" transform="rotate(-90 51 58)" fill="#110529"/>
<circle cx="47" cy="58" r="2" transform="rotate(-90 47 58)" fill="#110529"/>
<circle cx="41" cy="47" r="2" transform="rotate(-90 41 47)" fill="#110529"/>
<circle cx="51" cy="54" r="2" transform="rotate(-90 51 54)" fill="#110529"/>
<circle cx="47" cy="54" r="2" transform="rotate(-90 47 54)" fill="#110529"/>
<circle cx="43" cy="54" r="2" transform="rotate(-90 43 54)" fill="#110529"/>
<circle cx="49" cy="47" r="2" transform="rotate(-90 49 47)" fill="#110529"/>
<circle cx="71" cy="58" r="2" transform="rotate(-90 71 58)" fill="#845CFF"/>
<circle cx="33.5" cy="36" r="2" transform="rotate(-90 33.5 36)" fill="#845CFF"/>
<circle cx="47" cy="50.5" r="2" transform="rotate(-90 47 50.5)" fill="#845CFF"/>
<circle cx="71" cy="62" r="2" transform="rotate(-90 71 62)" fill="#845CFF"/>
<circle cx="45" cy="47" r="2" transform="rotate(-90 45 47)" fill="#845CFF"/>
<circle cx="58" cy="58" r="2" transform="rotate(-90 58 58)" fill="#845CFF"/>
<circle cx="63" cy="62" r="2" transform="rotate(-90 63 62)" fill="#845CFF"/>
<circle cx="67" cy="62" r="2" transform="rotate(-90 67 62)" fill="#845CFF"/>
<circle cx="62" cy="58" r="2" transform="rotate(-90 62 58)" fill="#845CFF"/>
<circle cx="76" cy="62" r="2" transform="rotate(-90 76 62)" fill="#845CFF"/>
<circle cx="23" cy="27" r="2" transform="rotate(-90 23 27)" fill="#845CFF"/>
<circle cx="36" cy="40" r="2" transform="rotate(-90 36 40)" fill="#845CFF"/>
<circle cx="40" cy="40" r="2" transform="rotate(-90 40 40)" fill="#845CFF"/>
<circle cx="54" cy="50.5" r="2" transform="rotate(-90 54 50.5)" fill="#845CFF"/>
<circle cx="29" cy="32" r="2" transform="rotate(-90 29 32)" fill="#845CFF"/>
<circle cx="26" cy="32" r="2" transform="rotate(-90 26 32)" fill="#845CFF"/>
<circle cx="66" cy="58" r="2" transform="rotate(-90 66 58)" fill="#845CFF"/>
<circle cx="68" cy="54" r="2" transform="rotate(-90 68 54)" fill="#845CFF"/>
<circle cx="64" cy="54" r="2" transform="rotate(-90 64 54)" fill="#845CFF"/>
<circle cx="60" cy="54" r="2" transform="rotate(-90 60 54)" fill="#845CFF"/>
<circle cx="56" cy="54" r="2" transform="rotate(-90 56 54)" fill="#845CFF"/>
<circle cx="52" cy="54" r="2" transform="rotate(-90 52 54)" fill="#845CFF"/>
<circle cx="42" cy="43.5" r="2" transform="rotate(-90 42 43.5)" fill="#845CFF"/>
<path d="M45 21L46.5 22.5M48 24L46.5 22.5M46.5 22.5L48 21M46.5 22.5L45 24" stroke="#110529"/>
<path d="M34 26L35.5 27.5M37 29L35.5 27.5M35.5 27.5L37 26M35.5 27.5L34 29" stroke="#110529"/>
<path d="M80 38L81.5 39.5M83 41L81.5 39.5M81.5 39.5L83 38M81.5 39.5L80 41" stroke="#110529"/>
<path d="M70 48L71.5 49.5M73 51L71.5 49.5M71.5 49.5L73 48M71.5 49.5L70 51" stroke="#110529"/>
<path d="M62 40L63.5 41.5M65 43L63.5 41.5M63.5 41.5L65 40M63.5 41.5L62 43" stroke="#110529"/>
<path d="M65 34L66.5 35.5M68 37L66.5 35.5M66.5 35.5L68 34M66.5 35.5L65 37" stroke="#110529"/>
<path d="M45 35L46.5 36.5M48 38L46.5 36.5M46.5 36.5L48 35M46.5 36.5L45 38" stroke="#110529"/>
<path d="M53 31L54.5 32.5M56 34L54.5 32.5M54.5 32.5L56 31M54.5 32.5L53 34" stroke="#110529"/>
<path d="M53 36L54.5 37.5M56 39L54.5 37.5M54.5 37.5L56 36M54.5 37.5L53 39" stroke="#110529"/>
<path d="M56 45L57.5 46.5M59 48L57.5 46.5M57.5 46.5L59 45M57.5 46.5L56 48" stroke="#110529"/>
<path d="M63 48L64.5 49.5M66 51L64.5 49.5M64.5 49.5L66 48M64.5 49.5L63 51" stroke="#110529"/>
<path d="M73 42L74.5 43.5M76 45L74.5 43.5M74.5 43.5L76 42M74.5 43.5L73 45" stroke="#110529"/>
<path d="M49 39L50.5 40.5M52 42L50.5 40.5M50.5 40.5L52 39M50.5 40.5L49 42" stroke="#110529"/>
<path d="M60 44L61.5 45.5M63 47L61.5 45.5M61.5 45.5L63 44M61.5 45.5L60 47" stroke="#110529"/>
<path d="M64 44L65.5 45.5M67 47L65.5 45.5M65.5 45.5L67 44M65.5 45.5L64 47" stroke="#110529"/>
<path d="M39 33L40.5 34.5M42 36L40.5 34.5M40.5 34.5L42 33M40.5 34.5L39 36" stroke="#110529"/>
<path d="M50 43L51.5 44.5M53 46L51.5 44.5M51.5 44.5L53 43M51.5 44.5L50 46" stroke="#110529"/>
<path d="M24 20L25.5 21.5M27 23L25.5 21.5M25.5 21.5L27 20M25.5 21.5L24 23" stroke="#110529"/>
<path d="M58 38L59.5 39.5M61 41L59.5 39.5M59.5 39.5L61 38M59.5 39.5L58 41" stroke="#110529"/>
<path d="M78 46L79.5 47.5M81 49L79.5 47.5M79.5 47.5L81 46M79.5 47.5L78 49" stroke="#110529"/>
<path d="M19 24C39.625 44.625 52.1132 64 84 64" stroke="#845CFF"/>
<defs>
<linearGradient id="paint0_linear_15631_68017" x1="50.0001" y1="0.0688678" x2="50.0001" y2="99.9311" gradientUnits="userSpaceOnUse">
<stop stop-color="#D1F5BF"/>
<stop offset="1" stop-color="#F4FEE0"/>
</linearGradient>
</defs>
</svg>
