<svg width="100" height="100" viewBox="0 0 100 100" fill="none" xmlns="http://www.w3.org/2000/svg">
<path d="M43.6492 3.67238C47.5791 1.44254 52.4209 1.44254 56.3509 3.67237L87.6491 21.431C91.5791 23.6608 94 27.7817 94 32.2414V67.7586C94 72.2183 91.5791 76.3392 87.6492 78.569L56.3509 96.3276C52.4209 98.5575 47.5791 98.5575 43.6492 96.3276L12.3509 78.569C8.42093 76.3392 6 72.2183 6 67.7586V32.2414C6 27.7817 8.42093 23.6608 12.3509 21.431L43.6492 3.67238Z" fill="url(#paint0_linear_15631_70002)"/>
<ellipse cx="36" cy="50" rx="24" ry="24" transform="rotate(-90 36 50)" fill="white"/>
<ellipse cx="28" cy="39" rx="2" ry="2" transform="rotate(-90 28 39)" fill="#DEDBFF" stroke="#110529"/>
<ellipse cx="39" cy="38" rx="3" ry="3" transform="rotate(-90 39 38)" fill="#DEDBFF" stroke="#110529"/>
<ellipse cx="34" cy="63" rx="3" ry="3" transform="rotate(-90 34 63)" fill="#DEDBFF" stroke="#110529"/>
<ellipse cx="25.5" cy="51.5" rx="6.5" ry="6.5" transform="rotate(-90 25.5 51.5)" fill="#DEDBFF" stroke="#110529"/>
<circle cx="42.5" cy="51.5" r="4.5" transform="rotate(-90 42.5 51.5)" fill="#DEDBFF" stroke="#110529"/>
<ellipse cx="31" cy="47" rx="3" ry="3" transform="rotate(-90 31 47)" fill="#DEDBFF" stroke="#110529"/>
<ellipse cx="39" cy="54" rx="2" ry="2" transform="rotate(-90 39 54)" fill="#DEDBFF" stroke="#110529"/>
<circle cx="67" cy="40" r="18" fill="#DEDBFF"/>
<path d="M53.0607 39.3536C52.8654 39.1583 52.8654 38.8417 53.0607 38.6464L58.6464 33.0607C58.8417 32.8654 59.1583 32.8654 59.3536 33.0607L64.9393 38.6464C65.1346 38.8417 65.1346 39.1583 64.9393 39.3536L59.3536 44.9393C59.1583 45.1346 58.8417 45.1346 58.6464 44.9393L53.0607 39.3536Z" fill="white" stroke="#110529"/>
<path d="M69.0607 46.8536C68.8654 46.6583 68.8654 46.3417 69.0607 46.1464L73.1464 42.0607C73.3417 41.8654 73.6583 41.8654 73.8536 42.0607L77.9393 46.1464C78.1346 46.3417 78.1346 46.6583 77.9393 46.8536L73.8536 50.9393C73.6583 51.1346 73.3417 51.1346 73.1464 50.9393L69.0607 46.8536Z" fill="white" stroke="#110529"/>
<path d="M61.0607 49.3536C60.8654 49.1583 60.8654 48.8417 61.0607 48.6464L62.6464 47.0607C62.8417 46.8654 63.1583 46.8654 63.3536 47.0607L64.9393 48.6464C65.1346 48.8417 65.1346 49.1583 64.9393 49.3536L63.3536 50.9393C63.1583 51.1346 62.8417 51.1346 62.6464 50.9393L61.0607 49.3536Z" fill="white" stroke="#110529"/>
<path d="M66.0607 30.3536C65.8654 30.1583 65.8654 29.8417 66.0607 29.6464L67.6464 28.0607C67.8417 27.8654 68.1583 27.8654 68.3536 28.0607L69.9393 29.6464C70.1346 29.8417 70.1346 30.1583 69.9393 30.3536L68.3536 31.9393C68.1583 32.1346 67.8417 32.1346 67.6464 31.9393L66.0607 30.3536Z" fill="white" stroke="#110529"/>
<path d="M62.0607 39.3536C61.8654 39.1583 61.8654 38.8417 62.0607 38.6464L64.6464 36.0607C64.8417 35.8654 65.1583 35.8654 65.3536 36.0607L67.9393 38.6464C68.1346 38.8417 68.1346 39.1583 67.9393 39.3536L65.3536 41.9393C65.1583 42.1346 64.8417 42.1346 64.6464 41.9393L62.0607 39.3536Z" fill="white" stroke="#110529"/>
<path d="M73.0607 35.3536C72.8654 35.1583 72.8654 34.8417 73.0607 34.6464L75.6464 32.0607C75.8417 31.8654 76.1583 31.8654 76.3536 32.0607L78.9393 34.6464C79.1346 34.8417 79.1346 35.1583 78.9393 35.3536L76.3536 37.9393C76.1583 38.1346 75.8417 38.1346 75.6464 37.9393L73.0607 35.3536Z" fill="white" stroke="#110529"/>
<ellipse cx="58" cy="69" rx="12" ry="12" transform="rotate(90 58 69)" fill="#C1ADFF"/>
<rect x="58" y="75" width="6" height="6" rx="0.5" transform="rotate(-90 58 75)" fill="#DEDBFF" stroke="#110529"/>
<rect x="51" y="67" width="4" height="4" rx="0.5" fill="#DEDBFF" stroke="#110529"/>
<rect x="57" y="63" width="3" height="3" rx="0.5" fill="#DEDBFF" stroke="#110529"/>
<defs>
<linearGradient id="paint0_linear_15631_70002" x1="50.0001" y1="0.0688678" x2="50.0001" y2="99.9311" gradientUnits="userSpaceOnUse">
<stop stop-color="#D1F5BF"/>
<stop offset="1" stop-color="#F4FEE0"/>
</linearGradient>
</defs>
</svg>
