<svg width="100" height="100" viewBox="0 0 100 100" fill="none" xmlns="http://www.w3.org/2000/svg">
<path d="M43.6492 3.67238C47.5791 1.44254 52.4209 1.44254 56.3509 3.67237L87.6491 21.431C91.5791 23.6608 94 27.7817 94 32.2414V67.7586C94 72.2183 91.5791 76.3392 87.6492 78.569L56.3509 96.3276C52.4209 98.5575 47.5791 98.5575 43.6492 96.3276L12.3509 78.569C8.42093 76.3392 6 72.2183 6 67.7586V32.2414C6 27.7817 8.42093 23.6608 12.3509 21.431L43.6492 3.67238Z" fill="url(#paint0_linear_15631_70097)"/>
<circle cx="58" cy="50" r="24" fill="white" stroke="#110529"/>
<ellipse cx="34.5" cy="50" rx="17.5" ry="18" fill="#DEDBFF" stroke="#110529"/>
<circle cx="58" cy="50" r="24" stroke="#110529" stroke-dasharray="1 2"/>
<circle cx="57.5" cy="50" r="15" fill="#C1ADFF" stroke="#110529"/>
<ellipse cx="34.5" cy="50" rx="17.5" ry="18" stroke="#110529"/>
<path d="M44.1875 42.5H50.125" stroke="#110529"/>
<path d="M43 46.25L51.9062 46.25" stroke="#110529"/>
<path d="M43 50L52.5 50" stroke="#110529"/>
<path d="M43 53.75L51.3125 53.75" stroke="#110529"/>
<path d="M44.1875 57.5L50.125 57.5" stroke="#110529"/>
<defs>
<linearGradient id="paint0_linear_15631_70097" x1="50.0001" y1="0.0688678" x2="50.0001" y2="99.9311" gradientUnits="userSpaceOnUse">
<stop stop-color="#D1F5BF"/>
<stop offset="1" stop-color="#F4FEE0"/>
</linearGradient>
</defs>
</svg>
