<svg width="100" height="100" viewBox="0 0 100 100" fill="none" xmlns="http://www.w3.org/2000/svg">
<path d="M43.6492 3.67238C47.5791 1.44254 52.4209 1.44254 56.3509 3.67237L87.6491 21.431C91.5791 23.6608 94 27.7817 94 32.2414V67.7586C94 72.2183 91.5791 76.3392 87.6492 78.569L56.3509 96.3276C52.4209 98.5575 47.5791 98.5575 43.6492 96.3276L12.3509 78.569C8.42093 76.3392 6 72.2183 6 67.7586V32.2414C6 27.7817 8.42093 23.6608 12.3509 21.431L43.6492 3.67238Z" fill="url(#paint0_linear_15631_69710)"/>
<rect x="16" y="18" width="1" height="1" fill="#110529"/>
<rect x="16" y="22" width="1" height="1" fill="#110529"/>
<rect x="16" y="26" width="1" height="1" fill="#110529"/>
<rect x="16" y="30" width="1" height="1" fill="#110529"/>
<rect x="16" y="34" width="1" height="1" fill="#110529"/>
<rect x="16" y="38" width="1" height="1" fill="#110529"/>
<rect x="16" y="42" width="1" height="1" fill="#110529"/>
<rect x="16" y="46" width="1" height="1" fill="#110529"/>
<rect x="16" y="50" width="1" height="1" fill="#110529"/>
<rect x="16" y="54" width="1" height="1" fill="#110529"/>
<rect x="16" y="58" width="1" height="1" fill="#110529"/>
<rect x="16" y="62" width="1" height="1" fill="#110529"/>
<rect x="16" y="66" width="1" height="1" fill="#110529"/>
<rect x="16" y="70" width="1" height="1" fill="#110529"/>
<rect x="16" y="74" width="1" height="1" fill="#110529"/>
<rect x="16" y="78" width="1" height="1" fill="#110529"/>
<path d="M16 82H84V83H16V82Z" fill="#110529"/>
<path d="M23.75 78C23.75 78.2761 23.9739 78.5 24.25 78.5H31.25L31.25 55C31.25 54.7239 31.0261 54.5 30.75 54.5H24.25C23.9739 54.5 23.75 54.7239 23.75 55L23.75 78Z" fill="#DEDBFF" stroke="#110529"/>
<path d="M31.25 78.5H38.75V65C38.75 64.7239 38.5261 64.5 38.25 64.5H31.75C31.4739 64.5 31.25 64.7239 31.25 65V78.5Z" fill="#DEDBFF" stroke="#110529"/>
<path d="M38.75 78.5H46.25L46.25 45C46.25 44.7239 46.0261 44.5 45.75 44.5H39.25C38.9739 44.5 38.75 44.7239 38.75 45L38.75 78.5Z" fill="#DEDBFF" stroke="#110529"/>
<path d="M46.25 78.5H53.75L53.75 27.25C53.75 26.9739 53.5261 26.75 53.25 26.75H46.75C46.4739 26.75 46.25 26.9739 46.25 27.25L46.25 78.5Z" fill="#DEDBFF" stroke="#110529"/>
<path d="M53.75 78.5H61.25L61.25 35C61.25 34.7239 61.0261 34.5 60.75 34.5H54.25C53.9739 34.5 53.75 34.7239 53.75 35L53.75 78.5Z" fill="#DEDBFF" stroke="#110529"/>
<path d="M61.25 78.5H68.75V51C68.75 50.7239 68.5261 50.5 68.25 50.5H61.75C61.4739 50.5 61.25 50.7239 61.25 51L61.25 78.5Z" fill="#DEDBFF" stroke="#110529"/>
<path d="M68.75 78.5H75.75C76.0261 78.5 76.25 78.2761 76.25 78V42.25C76.25 41.9739 76.0261 41.75 75.75 41.75H69.25C68.9739 41.75 68.75 41.9739 68.75 42.25V78.5Z" fill="#DEDBFF" stroke="#110529"/>
<path d="M24 50C38.3265 50 36.7347 20 50 20C60.6122 20 62.7347 36 76 36" stroke="#110529" stroke-linecap="square"/>
<defs>
<linearGradient id="paint0_linear_15631_69710" x1="50.0001" y1="0.0688678" x2="50.0001" y2="99.9311" gradientUnits="userSpaceOnUse">
<stop stop-color="#D1F5BF"/>
<stop offset="1" stop-color="#F4FEE0"/>
</linearGradient>
</defs>
</svg>
