<svg width="100" height="100" viewBox="0 0 100 100" fill="none" xmlns="http://www.w3.org/2000/svg">
<path d="M43.6492 3.67238C47.5791 1.44254 52.4209 1.44254 56.3509 3.67237L87.6491 21.431C91.5791 23.6608 94 27.7817 94 32.2414V67.7586C94 72.2183 91.5791 76.3392 87.6492 78.569L56.3509 96.3276C52.4209 98.5575 47.5791 98.5575 43.6492 96.3276L12.3509 78.569C8.42093 76.3392 6 72.2183 6 67.7586V32.2414C6 27.7817 8.42093 23.6608 12.3509 21.431L43.6492 3.67238Z" fill="url(#paint0_linear_15631_67566)"/>
<rect x="16" y="18" width="1" height="1" fill="#110529"/>
<rect x="16" y="22" width="1" height="1" fill="#110529"/>
<rect x="16" y="26" width="1" height="1" fill="#110529"/>
<rect x="16" y="30" width="1" height="1" fill="#110529"/>
<rect x="16" y="34" width="1" height="1" fill="#110529"/>
<rect x="16" y="38" width="1" height="1" fill="#110529"/>
<rect x="16" y="42" width="1" height="1" fill="#110529"/>
<rect x="16" y="46" width="1" height="1" fill="#110529"/>
<rect x="16" y="50" width="1" height="1" fill="#110529"/>
<rect x="16" y="54" width="1" height="1" fill="#110529"/>
<rect x="16" y="58" width="1" height="1" fill="#110529"/>
<rect x="16" y="62" width="1" height="1" fill="#110529"/>
<rect x="16" y="66" width="1" height="1" fill="#110529"/>
<rect x="16" y="70" width="1" height="1" fill="#110529"/>
<rect x="16" y="74" width="1" height="1" fill="#110529"/>
<rect x="16" y="78" width="1" height="1" fill="#110529"/>
<path d="M16 82H84V83H16V82Z" fill="#110529"/>
<path d="M23.2374 42.2803C22.9445 41.9874 22.9445 41.5126 23.2374 41.2197L25.4697 38.9874C25.7626 38.6945 26.2374 38.6945 26.5303 38.9874L28.7626 41.2197C29.0555 41.5126 29.0555 41.9874 28.7626 42.2803L26.5303 44.5126C26.2374 44.8055 25.7626 44.8055 25.4697 44.5126L23.2374 42.2803Z" fill="white" stroke="#110529"/>
<path d="M47.2374 55.5303C46.9445 55.2374 46.9445 54.7626 47.2374 54.4697L49.4697 52.2374C49.7626 51.9445 50.2374 51.9445 50.5303 52.2374L52.7626 54.4697C53.0555 54.7626 53.0555 55.2374 52.7626 55.5303L50.5303 57.7626C50.2374 58.0555 49.7626 58.0555 49.4697 57.7626L47.2374 55.5303Z" fill="#C1ADFF" stroke="#110529"/>
<path d="M51.2374 55.5303C50.9445 55.2374 50.9445 54.7626 51.2374 54.4697L53.4697 52.2374C53.7626 51.9445 54.2374 51.9445 54.5303 52.2374L56.7626 54.4697C57.0555 54.7626 57.0555 55.2374 56.7626 55.5303L54.5303 57.7626C54.2374 58.0555 53.7626 58.0555 53.4697 57.7626L51.2374 55.5303Z" fill="#C1ADFF" stroke="#110529"/>
<path d="M60.2374 49.7803C59.9445 49.4874 59.9445 49.0126 60.2374 48.7197L62.4697 46.4874C62.7626 46.1945 63.2374 46.1945 63.5303 46.4874L65.7626 48.7197C66.0555 49.0126 66.0555 49.4874 65.7626 49.7803L63.5303 52.0126C63.2374 52.3055 62.7626 52.3055 62.4697 52.0126L60.2374 49.7803Z" fill="#C1ADFF" stroke="#110529"/>
<path d="M47.2374 64.2803C46.9445 63.9874 46.9445 63.5126 47.2374 63.2197L49.4697 60.9874C49.7626 60.6945 50.2374 60.6945 50.5303 60.9874L52.7626 63.2197C53.0555 63.5126 53.0555 63.9874 52.7626 64.2803L50.5303 66.5126C50.2374 66.8055 49.7626 66.8055 49.4697 66.5126L47.2374 64.2803Z" fill="#C1ADFF" stroke="#110529"/>
<path d="M43.2374 47.2803C42.9445 46.9874 42.9445 46.5126 43.2374 46.2197L45.4697 43.9874C45.7626 43.6945 46.2374 43.6945 46.5303 43.9874L48.7626 46.2197C49.0555 46.5126 49.0555 46.9874 48.7626 47.2803L46.5303 49.5126C46.2374 49.8055 45.7626 49.8055 45.4697 49.5126L43.2374 47.2803Z" fill="#C1ADFF" stroke="#110529"/>
<path d="M40.2374 55.5303C39.9445 55.2374 39.9445 54.7626 40.2374 54.4697L42.4697 52.2374C42.7626 51.9445 43.2374 51.9445 43.5303 52.2374L45.7626 54.4697C46.0555 54.7626 46.0555 55.2374 45.7626 55.5303L43.5303 57.7626C43.2374 58.0555 42.7626 58.0555 42.4697 57.7626L40.2374 55.5303Z" fill="#C1ADFF" stroke="#110529"/>
<path d="M27.2374 64.5303C26.9445 64.2374 26.9445 63.7626 27.2374 63.4697L29.4697 61.2374C29.7626 60.9445 30.2374 60.9445 30.5303 61.2374L32.7626 63.4697C33.0555 63.7626 33.0555 64.2374 32.7626 64.5303L30.5303 66.7626C30.2374 67.0555 29.7626 67.0555 29.4697 66.7626L27.2374 64.5303Z" fill="#C1ADFF" stroke="#110529"/>
<path d="M23.2374 73.5303C22.9445 73.2374 22.9445 72.7626 23.2374 72.4697L25.4697 70.2374C25.7626 69.9445 26.2374 69.9445 26.5303 70.2374L28.7626 72.4697C29.0555 72.7626 29.0555 73.2374 28.7626 73.5303L26.5303 75.7626C26.2374 76.0555 25.7626 76.0555 25.4697 75.7626L23.2374 73.5303Z" fill="#C1ADFF" stroke="#110529"/>
<path d="M41.2374 69.5303C40.9445 69.2374 40.9445 68.7626 41.2374 68.4697L43.4697 66.2374C43.7626 65.9445 44.2374 65.9445 44.5303 66.2374L46.7626 68.4697C47.0555 68.7626 47.0555 69.2374 46.7626 69.5303L44.5303 71.7626C44.2374 72.0555 43.7626 72.0555 43.4697 71.7626L41.2374 69.5303Z" fill="white" stroke="#110529"/>
<path d="M31.2374 73.5303C30.9445 73.2374 30.9445 72.7626 31.2374 72.4697L33.4697 70.2374C33.7626 69.9445 34.2374 69.9445 34.5303 70.2374L36.7626 72.4697C37.0555 72.7626 37.0555 73.2374 36.7626 73.5303L34.5303 75.7626C34.2374 76.0555 33.7626 76.0555 33.4697 75.7626L31.2374 73.5303Z" fill="white" stroke="#110529"/>
<path d="M31.2374 64.7803C30.9445 64.4874 30.9445 64.0126 31.2374 63.7197L33.4697 61.4874C33.7626 61.1945 34.2374 61.1945 34.5303 61.4874L36.7626 63.7197C37.0555 64.0126 37.0555 64.4874 36.7626 64.7803L34.5303 67.0126C34.2374 67.3055 33.7626 67.3055 33.4697 67.0126L31.2374 64.7803Z" fill="white" stroke="#110529"/>
<path d="M37.2374 69.5303C36.9445 69.2374 36.9445 68.7626 37.2374 68.4697L39.4697 66.2374C39.7626 65.9445 40.2374 65.9445 40.5303 66.2374L42.7626 68.4697C43.0555 68.7626 43.0555 69.2374 42.7626 69.5303L40.5303 71.7626C40.2374 72.0555 39.7626 72.0555 39.4697 71.7626L37.2374 69.5303Z" fill="white" stroke="#110529"/>
<path d="M71.2374 35.5303C70.9445 35.2374 70.9445 34.7626 71.2374 34.4697L73.4697 32.2374C73.7626 31.9445 74.2374 31.9445 74.5303 32.2374L76.7626 34.4697C77.0555 34.7626 77.0555 35.2374 76.7626 35.5303L74.5303 37.7626C74.2374 38.0555 73.7626 38.0555 73.4697 37.7626L71.2374 35.5303Z" fill="white" stroke="#110529"/>
<path d="M60.2374 69.5303C59.9445 69.2374 59.9445 68.7626 60.2374 68.4697L62.4697 66.2374C62.7626 65.9445 63.2374 65.9445 63.5303 66.2374L65.7626 68.4697C66.0555 68.7626 66.0555 69.2374 65.7626 69.5303L63.5303 71.7626C63.2374 72.0555 62.7626 72.0555 62.4697 71.7626L60.2374 69.5303Z" fill="white" stroke="#110529"/>
<path d="M69.2374 59.5303C68.9445 59.2374 68.9445 58.7626 69.2374 58.4697L71.4697 56.2374C71.7626 55.9445 72.2374 55.9445 72.5303 56.2374L74.7626 58.4697C75.0555 58.7626 75.0555 59.2374 74.7626 59.5303L72.5303 61.7626C72.2374 62.0555 71.7626 62.0555 71.4697 61.7626L69.2374 59.5303Z" fill="#C1ADFF" stroke="#110529"/>
<path d="M60.2374 38.5303C59.9445 38.2374 59.9445 37.7626 60.2374 37.4697L62.4697 35.2374C62.7626 34.9445 63.2374 34.9445 63.5303 35.2374L65.7626 37.4697C66.0555 37.7626 66.0555 38.2374 65.7626 38.5303L63.5303 40.7626C63.2374 41.0555 62.7626 41.0555 62.4697 40.7626L60.2374 38.5303Z" fill="white" stroke="#110529"/>
<path d="M56.2374 49.5303C55.9445 49.2374 55.9445 48.7626 56.2374 48.4697L58.4697 46.2374C58.7626 45.9445 59.2374 45.9445 59.5303 46.2374L61.7626 48.4697C62.0555 48.7626 62.0555 49.2374 61.7626 49.5303L59.5303 51.7626C59.2374 52.0555 58.7626 52.0555 58.4697 51.7626L56.2374 49.5303Z" fill="white" stroke="#110529"/>
<path d="M71.2374 26.5303C70.9445 26.2374 70.9445 25.7626 71.2374 25.4697L73.4697 23.2374C73.7626 22.9445 74.2374 22.9445 74.5303 23.2374L76.7626 25.4697C77.0555 25.7626 77.0555 26.2374 76.7626 26.5303L74.5303 28.7626C74.2374 29.0555 73.7626 29.0555 73.4697 28.7626L71.2374 26.5303Z" fill="white" stroke="#110529"/>
<path d="M42.5 27.5L45 30M47.5 32.5L45 30M45 30L47.5 27.5M45 30L42.5 32.5" stroke="#110529"/>
<path d="M67.5 41.25L70 43.75M72.5 46.25L70 43.75M70 43.75L72.5 41.25M70 43.75L67.5 46.25" stroke="#110529"/>
<path d="M60.5 58L63 60.5M65.5 63L63 60.5M63 60.5L65.5 58M63 60.5L60.5 63" stroke="#110529"/>
<path d="M47.5 71L50 73.5M52.5 76L50 73.5M50 73.5L52.5 71M50 73.5L47.5 76" stroke="#110529"/>
<path d="M31.5 52.5L34 55M36.5 57.5L34 55M34 55L36.5 52.5M34 55L31.5 57.5" stroke="#110529"/>
<path d="M40.2374 60.5303C39.9445 60.2374 39.9445 59.7626 40.2374 59.4697L42.4697 57.2374C42.7626 56.9445 43.2374 56.9445 43.5303 57.2374L45.7626 59.4697C46.0555 59.7626 46.0555 60.2374 45.7626 60.5303L43.5303 62.7626C43.2374 63.0555 42.7626 63.0555 42.4697 62.7626L40.2374 60.5303Z" fill="#C1ADFF" stroke="#110529"/>
<defs>
<linearGradient id="paint0_linear_15631_67566" x1="50.0001" y1="0.0688678" x2="50.0001" y2="99.9311" gradientUnits="userSpaceOnUse">
<stop stop-color="#D1F5BF"/>
<stop offset="1" stop-color="#F4FEE0"/>
</linearGradient>
</defs>
</svg>
