<svg width="100" height="100" viewBox="0 0 100 100" fill="none" xmlns="http://www.w3.org/2000/svg">
<path d="M43.6492 3.67238C47.5791 1.44254 52.4209 1.44254 56.3509 3.67237L87.6491 21.431C91.5791 23.6608 94 27.7817 94 32.2414V67.7586C94 72.2183 91.5791 76.3392 87.6492 78.569L56.3509 96.3276C52.4209 98.5575 47.5791 98.5575 43.6492 96.3276L12.3509 78.569C8.42093 76.3392 6 72.2183 6 67.7586V32.2414C6 27.7817 8.42093 23.6608 12.3509 21.431L43.6492 3.67238Z" fill="url(#paint0_linear_15631_68313)"/>
<path d="M80 64L66.6214 72.6005C66.2963 72.8095 65.8613 72.6763 65.709 72.321L51.213 38.497C51.0907 38.2117 50.7775 38.0593 50.4775 38.1393L36.0791 41.9789C36.0266 41.9929 35.9725 42 35.9181 42H21" stroke="#110529" stroke-dasharray="2 2"/>
<path d="M80 39L66.4515 47.7098C66.1918 47.8767 65.8491 47.829 65.6449 47.5975L51.2916 31.3305C51.1167 31.1323 50.8362 31.0655 50.5908 31.1637L36.1118 36.9553C36.0379 36.9848 35.9591 37 35.8796 37H21" stroke="#110529"/>
<path d="M21 72L35.7485 51.3521C35.8998 51.1403 36.1666 51.0444 36.4181 51.1115L50.5078 54.8687C50.7944 54.9452 51.0952 54.8096 51.2278 54.5443L65.8273 25.3455C65.9331 25.1338 66.1495 25 66.3863 25H80" stroke="#845CFF" stroke-width="1.25"/>
<path d="M21 77L35.747 63.2362C35.9044 63.0892 36.1264 63.0337 36.3344 63.0892L50.7108 66.9229C50.8936 66.9716 51.0888 66.9349 51.2414 66.823L65.835 56.121C65.9422 56.0424 66.0717 56 66.2046 56H80" stroke="#845CFF" stroke-dasharray="2 2"/>
<circle cx="2" cy="2" r="2" transform="matrix(-1 0 0 1 68 23)" fill="#845CFF"/>
<circle cx="2" cy="2" r="2" transform="matrix(-1 0 0 1 53 53)" fill="#845CFF"/>
<circle cx="2" cy="2" r="2" transform="matrix(-1 0 0 1 38 49)" fill="#845CFF"/>
<circle cx="2" cy="2" r="2" transform="matrix(-1 0 0 1 23 70)" fill="#845CFF"/>
<circle cx="2" cy="2" r="2" transform="matrix(-1 0 0 1 23 75)" fill="#845CFF"/>
<circle cx="2" cy="2" r="2" transform="matrix(-1 0 0 1 82 54)" fill="#845CFF"/>
<circle cx="2" cy="2" r="2" transform="matrix(-1 0 0 1 82 23)" fill="#845CFF"/>
<circle cx="2" cy="2" r="2" transform="matrix(-1 0 0 1 38 61)" fill="#845CFF"/>
<circle cx="2" cy="2" r="2" transform="matrix(-1 0 0 1 53 65)" fill="#845CFF"/>
<circle cx="2" cy="2" r="2" transform="matrix(-1 0 0 1 68 54)" fill="#845CFF"/>
<circle cx="2" cy="2" r="2" transform="matrix(-1 0 0 1 38 35)" fill="#110529"/>
<circle cx="2" cy="2" r="2" transform="matrix(-1 0 0 1 23 35)" fill="#110529"/>
<circle cx="2" cy="2" r="2" transform="matrix(-1 0 0 1 53 29)" fill="#110529"/>
<circle cx="2" cy="2" r="2" transform="matrix(-1 0 0 1 68 46)" fill="#110529"/>
<circle cx="2" cy="2" r="2" transform="matrix(-1 0 0 1 82 37)" fill="#110529"/>
<circle cx="2" cy="2" r="2" transform="matrix(-1 0 0 1 82 62)" fill="#110529"/>
<circle cx="2" cy="2" r="2" transform="matrix(-1 0 0 1 68 71)" fill="#110529"/>
<circle cx="2" cy="2" r="2" transform="matrix(-1 0 0 1 53 36)" fill="#110529"/>
<circle cx="2" cy="2" r="2" transform="matrix(-1 0 0 1 38 40)" fill="#110529"/>
<circle cx="2" cy="2" r="2" transform="matrix(-1 0 0 1 23 40)" fill="#110529"/>
<rect x="16" y="18" width="1" height="1" fill="#110529"/>
<rect x="16" y="22" width="1" height="1" fill="#110529"/>
<rect x="16" y="26" width="1" height="1" fill="#110529"/>
<rect x="16" y="30" width="1" height="1" fill="#110529"/>
<rect x="16" y="34" width="1" height="1" fill="#110529"/>
<rect x="16" y="38" width="1" height="1" fill="#110529"/>
<rect x="16" y="42" width="1" height="1" fill="#110529"/>
<rect x="16" y="46" width="1" height="1" fill="#110529"/>
<rect x="16" y="50" width="1" height="1" fill="#110529"/>
<rect x="16" y="54" width="1" height="1" fill="#110529"/>
<rect x="16" y="58" width="1" height="1" fill="#110529"/>
<rect x="16" y="62" width="1" height="1" fill="#110529"/>
<rect x="16" y="66" width="1" height="1" fill="#110529"/>
<rect x="16" y="70" width="1" height="1" fill="#110529"/>
<rect x="16" y="74" width="1" height="1" fill="#110529"/>
<rect x="16" y="78" width="1" height="1" fill="#110529"/>
<path d="M16 82H84V83H16V82Z" fill="#110529"/>
<defs>
<linearGradient id="paint0_linear_15631_68313" x1="50.0001" y1="0.0688678" x2="50.0001" y2="99.9311" gradientUnits="userSpaceOnUse">
<stop stop-color="#D1F5BF"/>
<stop offset="1" stop-color="#F4FEE0"/>
</linearGradient>
</defs>
</svg>
