<svg width="100" height="100" viewBox="0 0 100 100" fill="none" xmlns="http://www.w3.org/2000/svg">
<path d="M43.6492 3.67238C47.5791 1.44254 52.4209 1.44254 56.3509 3.67237L87.6491 21.431C91.5791 23.6608 94 27.7817 94 32.2414V67.7586C94 72.2183 91.5791 76.3392 87.6492 78.569L56.3509 96.3276C52.4209 98.5575 47.5791 98.5575 43.6492 96.3276L12.3509 78.569C8.42093 76.3392 6 72.2183 6 67.7586V32.2414C6 27.7817 8.42093 23.6608 12.3509 21.431L43.6492 3.67238Z" fill="url(#paint0_linear_15631_67796)"/>
<path d="M19 50.5H84" stroke="#845CFF"/>
<circle cx="44.5" cy="41.75" r="2" transform="rotate(-90 44.5 41.75)" fill="#845CFF"/>
<circle cx="47.5" cy="36.5" r="2" transform="rotate(-90 47.5 36.5)" fill="#845CFF"/>
<circle cx="49.375" cy="45.625" r="1.875" transform="rotate(-90 49.375 45.625)" fill="#845CFF"/>
<circle cx="42" cy="43" r="2" transform="rotate(-90 42 43)" fill="#110529"/>
<circle cx="38.25" cy="46.5" r="2" transform="rotate(-90 38.25 46.5)" fill="#110529"/>
<circle cx="39" cy="40" r="2" transform="rotate(-90 39 40)" fill="#110529"/>
<circle cx="44.5" cy="45.5" r="2" transform="rotate(-90 44.5 45.5)" fill="#110529"/>
<circle cx="35.75" cy="48" r="2" transform="rotate(-90 35.75 48)" fill="#110529"/>
<circle cx="44.5" cy="34" r="2" transform="rotate(-90 44.5 34)" fill="#110529"/>
<circle cx="42" cy="48" r="2" transform="rotate(-90 42 48)" fill="#110529"/>
<circle cx="48.25" cy="48" r="2" transform="rotate(-90 48.25 48)" fill="#110529"/>
<circle cx="45.5" cy="38" r="2" transform="rotate(-90 45.5 38)" fill="#845CFF"/>
<circle cx="49" cy="31" r="2" transform="rotate(-90 49 31)" fill="#845CFF"/>
<circle cx="57" cy="35.5" r="2" transform="rotate(-90 57 35.5)" fill="#845CFF"/>
<circle cx="53.5" cy="38" r="2" transform="rotate(-90 53.5 38)" fill="#845CFF"/>
<circle cx="52" cy="41.75" r="2" transform="rotate(-90 52 41.75)" fill="#845CFF"/>
<circle cx="48.25" cy="41.75" r="2" transform="rotate(-90 48.25 41.75)" fill="#845CFF"/>
<circle cx="65.75" cy="45.5" r="2" transform="rotate(-90 65.75 45.5)" fill="#845CFF"/>
<circle cx="62" cy="49" r="2" transform="rotate(-90 62 49)" fill="#845CFF"/>
<circle cx="61" cy="35.5" r="2" transform="rotate(-90 61 35.5)" fill="#845CFF"/>
<circle cx="68.25" cy="39.25" r="2" transform="rotate(-90 68.25 39.25)" fill="#845CFF"/>
<circle cx="78" cy="42" r="2" transform="rotate(-90 78 42)" fill="#845CFF"/>
<circle cx="55.75" cy="41.75" r="2" transform="rotate(-90 55.75 41.75)" fill="#845CFF"/>
<circle cx="59.5" cy="41.75" r="2" transform="rotate(-90 59.5 41.75)" fill="#845CFF"/>
<circle cx="63.25" cy="41.75" r="2" transform="rotate(-90 63.25 41.75)" fill="#845CFF"/>
<circle cx="42" cy="36.5" r="2" transform="rotate(-90 42 36.5)" fill="#845CFF"/>
<circle cx="34" cy="42" r="2" transform="rotate(-90 34 42)" fill="#845CFF"/>
<circle cx="57" cy="45.5" r="2" transform="rotate(-90 57 45.5)" fill="#845CFF"/>
<circle cx="53.25" cy="45.5" r="2" transform="rotate(-90 53.25 45.5)" fill="#845CFF"/>
<circle cx="60.75" cy="45.5" r="2" transform="rotate(-90 60.75 45.5)" fill="#845CFF"/>
<circle cx="55.5" cy="30.5" r="2" transform="rotate(-90 55.5 30.5)" fill="#845CFF"/>
<circle cx="51.75" cy="34" r="2" transform="rotate(-90 51.75 34)" fill="#845CFF"/>
<circle cx="56" cy="26" r="2" transform="rotate(-90 56 26)" fill="#845CFF"/>
<circle cx="65" cy="30.5" r="2" transform="rotate(-90 65 30.5)" fill="#845CFF"/>
<circle cx="49.5" cy="38" r="2" transform="rotate(-90 49.5 38)" fill="#845CFF"/>
<circle cx="67" cy="22" r="2" transform="rotate(-90 67 22)" fill="#845CFF"/>
<circle cx="69.5" cy="48" r="2" transform="rotate(-90 69.5 48)" fill="#845CFF"/>
<circle cx="2" cy="2" r="2" transform="matrix(4.37114e-08 1 1 -4.37114e-08 43.5 57.25)" fill="#845CFF"/>
<circle cx="2" cy="2" r="2" transform="matrix(4.37114e-08 1 1 -4.37114e-08 45.5 62.5)" fill="#845CFF"/>
<circle cx="1.875" cy="1.875" r="1.875" transform="matrix(4.37114e-08 1 1 -4.37114e-08 47.5 53.5)" fill="#845CFF"/>
<circle cx="2" cy="2" r="2" transform="matrix(4.37114e-08 1 1 -4.37114e-08 40 56)" fill="#110529"/>
<circle cx="2" cy="2" r="2" transform="matrix(4.37114e-08 1 1 -4.37114e-08 36.25 52.5)" fill="#110529"/>
<circle cx="2" cy="2" r="2" transform="matrix(4.37114e-08 1 1 -4.37114e-08 37 59)" fill="#110529"/>
<circle cx="2" cy="2" r="2" transform="matrix(4.37114e-08 1 1 -4.37114e-08 42.5 53.5)" fill="#110529"/>
<circle cx="2" cy="2" r="2" transform="matrix(4.37114e-08 1 1 -4.37114e-08 33.75 51)" fill="#110529"/>
<circle cx="2" cy="2" r="2" transform="matrix(4.37114e-08 1 1 -4.37114e-08 42.5 65)" fill="#110529"/>
<circle cx="2" cy="2" r="2" transform="matrix(4.37114e-08 1 1 -4.37114e-08 40 51)" fill="#110529"/>
<circle cx="2" cy="2" r="2" transform="matrix(4.37114e-08 1 1 -4.37114e-08 46.25 51)" fill="#110529"/>
<circle cx="2" cy="2" r="2" transform="matrix(4.37114e-08 1 1 -4.37114e-08 43.5 61)" fill="#845CFF"/>
<circle cx="2" cy="2" r="2" transform="matrix(4.37114e-08 1 1 -4.37114e-08 47 68)" fill="#845CFF"/>
<circle cx="2" cy="2" r="2" transform="matrix(4.37114e-08 1 1 -4.37114e-08 55 63.5)" fill="#845CFF"/>
<circle cx="2" cy="2" r="2" transform="matrix(4.37114e-08 1 1 -4.37114e-08 51.5 61)" fill="#845CFF"/>
<circle cx="2" cy="2" r="2" transform="matrix(4.37114e-08 1 1 -4.37114e-08 50 57.25)" fill="#845CFF"/>
<circle cx="2" cy="2" r="2" transform="matrix(4.37114e-08 1 1 -4.37114e-08 46.25 57.25)" fill="#845CFF"/>
<circle cx="2" cy="2" r="2" transform="matrix(4.37114e-08 1 1 -4.37114e-08 63.75 53.5)" fill="#845CFF"/>
<circle cx="2" cy="2" r="2" transform="matrix(4.37114e-08 1 1 -4.37114e-08 60 50)" fill="#845CFF"/>
<circle cx="2" cy="2" r="2" transform="matrix(4.37114e-08 1 1 -4.37114e-08 59 63.5)" fill="#845CFF"/>
<circle cx="2" cy="2" r="2" transform="matrix(4.37114e-08 1 1 -4.37114e-08 66.25 59.75)" fill="#845CFF"/>
<circle cx="2" cy="2" r="2" transform="matrix(4.37114e-08 1 1 -4.37114e-08 76 57)" fill="#845CFF"/>
<circle cx="2" cy="2" r="2" transform="matrix(4.37114e-08 1 1 -4.37114e-08 53.75 57.25)" fill="#845CFF"/>
<circle cx="2" cy="2" r="2" transform="matrix(4.37114e-08 1 1 -4.37114e-08 57.5 57.25)" fill="#845CFF"/>
<circle cx="2" cy="2" r="2" transform="matrix(4.37114e-08 1 1 -4.37114e-08 61.25 57.25)" fill="#845CFF"/>
<circle cx="2" cy="2" r="2" transform="matrix(4.37114e-08 1 1 -4.37114e-08 40 62.5)" fill="#845CFF"/>
<circle cx="2" cy="2" r="2" transform="matrix(4.37114e-08 1 1 -4.37114e-08 32 57)" fill="#845CFF"/>
<circle cx="2" cy="2" r="2" transform="matrix(4.37114e-08 1 1 -4.37114e-08 55 53.5)" fill="#845CFF"/>
<circle cx="2" cy="2" r="2" transform="matrix(4.37114e-08 1 1 -4.37114e-08 51.25 53.5)" fill="#845CFF"/>
<circle cx="2" cy="2" r="2" transform="matrix(4.37114e-08 1 1 -4.37114e-08 58.75 53.5)" fill="#845CFF"/>
<circle cx="2" cy="2" r="2" transform="matrix(4.37114e-08 1 1 -4.37114e-08 53.5 68.5)" fill="#845CFF"/>
<circle cx="2" cy="2" r="2" transform="matrix(4.37114e-08 1 1 -4.37114e-08 49.75 65)" fill="#845CFF"/>
<circle cx="2" cy="2" r="2" transform="matrix(4.37114e-08 1 1 -4.37114e-08 54 73)" fill="#845CFF"/>
<circle cx="2" cy="2" r="2" transform="matrix(4.37114e-08 1 1 -4.37114e-08 63 68.5)" fill="#845CFF"/>
<circle cx="2" cy="2" r="2" transform="matrix(4.37114e-08 1 1 -4.37114e-08 47.5 61)" fill="#845CFF"/>
<circle cx="2" cy="2" r="2" transform="matrix(4.37114e-08 1 1 -4.37114e-08 65 77)" fill="#845CFF"/>
<circle cx="2" cy="2" r="2" transform="matrix(4.37114e-08 1 1 -4.37114e-08 67.5 51)" fill="#845CFF"/>
<circle cx="55" cy="49" r="2" transform="rotate(-90 55 49)" fill="#110529"/>
<circle cx="55" cy="52" r="2" transform="rotate(-90 55 52)" fill="#110529"/>
<circle cx="51" cy="50.5" r="2" transform="rotate(-90 51 50.5)" fill="#110529"/>
<circle cx="66" cy="50.5" r="2" transform="rotate(-90 66 50.5)" fill="#110529"/>
<circle cx="58.5" cy="50.5" r="2" transform="rotate(-90 58.5 50.5)" fill="#110529"/>
<circle cx="76" cy="50.5" r="2" transform="rotate(-90 76 50.5)" fill="#110529"/>
<circle cx="28" cy="50.5" r="2" transform="rotate(-90 28 50.5)" fill="#110529"/>
<circle cx="22" cy="50.5" r="2" transform="rotate(-90 22 50.5)" fill="#110529"/>
<circle cx="32" cy="50.5" r="2" transform="rotate(-90 32 50.5)" fill="#110529"/>
<circle cx="38.5" cy="50.5" r="2" transform="rotate(-90 38.5 50.5)" fill="#110529"/>
<circle cx="44.5" cy="50.5" r="2" transform="rotate(-90 44.5 50.5)" fill="#110529"/>
<rect x="16" y="18" width="1" height="1" fill="#110529"/>
<rect x="16" y="22" width="1" height="1" fill="#110529"/>
<rect x="16" y="26" width="1" height="1" fill="#110529"/>
<rect x="16" y="30" width="1" height="1" fill="#110529"/>
<rect x="16" y="34" width="1" height="1" fill="#110529"/>
<rect x="16" y="38" width="1" height="1" fill="#110529"/>
<rect x="16" y="42" width="1" height="1" fill="#110529"/>
<rect x="16" y="46" width="1" height="1" fill="#110529"/>
<rect x="16" y="50" width="1" height="1" fill="#110529"/>
<rect x="16" y="54" width="1" height="1" fill="#110529"/>
<rect x="16" y="58" width="1" height="1" fill="#110529"/>
<rect x="16" y="62" width="1" height="1" fill="#110529"/>
<rect x="16" y="66" width="1" height="1" fill="#110529"/>
<rect x="16" y="70" width="1" height="1" fill="#110529"/>
<rect x="16" y="74" width="1" height="1" fill="#110529"/>
<rect x="16" y="78" width="1" height="1" fill="#110529"/>
<path d="M16 82H84V83H16V82Z" fill="#110529"/>
<defs>
<linearGradient id="paint0_linear_15631_67796" x1="50.0001" y1="0.0688678" x2="50.0001" y2="99.9311" gradientUnits="userSpaceOnUse">
<stop stop-color="#D1F5BF"/>
<stop offset="1" stop-color="#F4FEE0"/>
</linearGradient>
</defs>
</svg>
